<?xml version="1.0" encoding="UTF-8" standalone="no"?>
<!DOCTYPE svg PUBLIC "-//W3C//DTD SVG 1.1//EN" "http://www.w3.org/Graphics/SVG/1.1/DTD/svg11.dtd">
<svg width="100%" height="100%" viewBox="0 0 2732 1536" version="1.1" xmlns="http://www.w3.org/2000/svg" xmlns:xlink="http://www.w3.org/1999/xlink" xml:space="preserve" xmlns:serif="http://www.serif.com/" style="fill-rule:evenodd;clip-rule:evenodd;stroke-linejoin:round;stroke-miterlimit:2;">
    <g transform="matrix(1,0,0,1,-2900.17,-5002.87)">
        <g id="CPC" transform="matrix(1,0,0,0.75,-5707.11,5002.87)">
            <rect x="8607.28" y="0" width="2732" height="2048" style="fill:none;"/>
            <clipPath id="_clip1">
                <rect x="8607.28" y="0" width="2732" height="2048"/>
            </clipPath>
            <g clip-path="url(#_clip1)">
                <g transform="matrix(2.01732,0,0,20.4305,2756.71,-104254)">
                    <rect x="2900.17" y="5102.87" width="1354.27" height="100.241" style="fill:rgb(101,103,100);"/>
                </g>
                <g transform="matrix(1.36857,-3.69246,0.807305,0.531944,722.311,10974.5)">
                    <rect x="3183.24" y="5516.21" width="712.194" height="712.194" style="fill:rgb(153,50,51);"/>
                </g>
                <g id="Ready" transform="matrix(1,0,0,1,19.1488,-27.6025)">
                    <g transform="matrix(2.06208,0,0,12.1683,780.821,-71834.6)">
                        <rect x="3840.17" y="6049.74" width="58.007" height="13.127" style="fill:white;"/>
                    </g>
                    <g transform="matrix(1.49519,0,0,1.99359,3510.98,-9987.04)">
                        <path d="M3670.17,5862.91L3670.17,5852.81L3640.17,5852.81L3640.17,5842.74L3680.17,5842.74L3680.17,5852.81L3690.17,5852.81L3690.17,5882.68L3700.17,5882.68L3700.17,5892.74L3680.17,5892.74L3680.17,5882.9L3670.17,5882.9L3670.17,5872.91L3650.17,5872.91L3650.17,5882.84L3670.17,5882.84L3670.17,5892.9L3640.17,5892.9L3640.17,5882.93L3630.17,5882.93L3630.17,5872.87L3640.17,5872.87L3640.17,5862.82L3670.17,5862.82L3670.17,5862.91Z" style="fill:white;"/>
                    </g>
                    <g transform="matrix(4.48557,0,0,1.99359,-7538.98,-9967.1)">
                        <rect x="3710.17" y="5812.87" width="10" height="10" style="fill:white;"/>
                    </g>
                    <g transform="matrix(1.49519,0,0,1.99359,3510.98,-9987.04)">
                        <path d="M3760.17,5882.68L3750.17,5882.68L3750.17,5852.58L3730.17,5852.58L3730.17,5882.68L3750.17,5882.68L3750.17,5892.74L3720.17,5892.74L3720.17,5882.68L3710.17,5882.68L3710.17,5852.58L3720.17,5852.58L3720.17,5842.52L3750.17,5842.52L3750.17,5822.87L3770.17,5822.87L3770.17,5882.68C3770.17,5882.68 3780.17,5882.68 3780.17,5882.68L3780.17,5892.74L3760.17,5892.74L3760.17,5882.68ZM3750.17,5822.87L3740.17,5822.87L3740.17,5832.87L3750.17,5832.87L3750.17,5822.87Z" style="fill:white;"/>
                    </g>
                    <g transform="matrix(1.49519,0,0,1.99359,3510.98,-9987.04)">
                        <path d="M3840.17,5882.95L3810.17,5882.95L3810.17,5872.93L3800.17,5872.93L3800.17,5842.74L3820.17,5842.74L3820.17,5872.88L3840.17,5872.88L3840.17,5872.95C3840.17,5872.95 3840.17,5842.87 3840.17,5842.87L3860.17,5842.87L3860.17,5892.9L3850.17,5892.9L3850.17,5902.96L3800.17,5902.96L3800.17,5892.9L3840.17,5892.9L3840.17,5882.95Z" style="fill:white;"/>
                    </g>
                    <g transform="matrix(1.49519,0,0,1.99359,3510.98,-9987.04)">
                        <path d="M3610.17,5852.87L3620.17,5852.87L3620.17,5872.93L3580.17,5872.93L3580.17,5882.68L3610.17,5882.68L3610.17,5892.74L3570.17,5892.74L3570.17,5882.81L3560.17,5882.81L3560.17,5852.81L3570.17,5852.81L3570.17,5842.87L3610.17,5842.87L3610.17,5852.87ZM3580.17,5852.93L3580.17,5862.87L3600.17,5862.87L3600.17,5852.93L3580.17,5852.93Z" style="fill:white;"/>
                    </g>
                    <g transform="matrix(1.49519,0,0,1.99359,3510.98,-9987.04)">
                        <path d="M3530.17,5822.87C3530.17,5822.87 3530.17,5832.87 3530.17,5832.87L3540.17,5832.87L3540.17,5852.87L3530.17,5852.87L3530.17,5872.74L3540.17,5872.74L3540.17,5892.87L3520.17,5892.87L3520.17,5872.87L3510.17,5872.87L3510.17,5862.87L3500.17,5862.87L3500.17,5892.87L3470.17,5892.87L3470.17,5882.87L3480.17,5882.87L3480.17,5832.87L3470.17,5832.87L3470.17,5822.87L3530.17,5822.87ZM3520.17,5832.87C3520.17,5832.87 3500.17,5832.87 3500.17,5832.87L3500.17,5852.87L3520.17,5852.87L3520.17,5832.87Z" style="fill:white;"/>
                    </g>
                </g>
            </g>
        </g>
    </g>
</svg>
