<?xml version="1.0" encoding="UTF-8" standalone="no"?>
<!DOCTYPE svg PUBLIC "-//W3C//DTD SVG 1.1//EN" "http://www.w3.org/Graphics/SVG/1.1/DTD/svg11.dtd">
<svg width="100%" height="100%" viewBox="0 0 2732 1536" version="1.1" xmlns="http://www.w3.org/2000/svg" xmlns:xlink="http://www.w3.org/1999/xlink" xml:space="preserve" xmlns:serif="http://www.serif.com/" style="fill-rule:evenodd;clip-rule:evenodd;stroke-linejoin:round;stroke-miterlimit:2;">
    <g transform="matrix(1,0,0,1,-5740.69,-2.93264)">
        <g id="Arcade" transform="matrix(1,0,0,0.75,76.6895,2.93264)">
            <rect x="5664" y="0" width="2732" height="2048" style="fill:none;"/>
            <clipPath id="_clip1">
                <rect x="5664" y="0" width="2732" height="2048"/>
            </clipPath>
            <g clip-path="url(#_clip1)">
                <g id="PCB" transform="matrix(6.22255,4.93832e-32,9.86272e-32,8.36499,-5275.98,-46.384)">
                    <rect x="1757.67" y="5.27" width="439.821" height="245.224" style="fill:rgb(4,35,11);"/>
                </g>
                <g id="PCB1" serif:id="PCB" transform="matrix(5.8221,0,0,8.36833,-4396.97,-46.4016)">
                    <path d="M2197.49,5.27L1764.57,5.27C1762.74,5.27 1760.99,5.945 1759.69,7.145C1758.4,8.345 1757.67,9.973 1757.67,11.67L1757.67,243.936C1757.67,245.676 1758.42,247.344 1759.74,248.574C1761.07,249.804 1762.87,250.494 1764.74,250.494L2197.49,250.494L2197.49,5.27Z" style="fill:rgb(25,80,59);"/>
                    <clipPath id="_clip2">
                        <path d="M2197.49,5.27L1764.57,5.27C1762.74,5.27 1760.99,5.945 1759.69,7.145C1758.4,8.345 1757.67,9.973 1757.67,11.67L1757.67,243.936C1757.67,245.676 1758.42,247.344 1759.74,248.574C1761.07,249.804 1762.87,250.494 1764.74,250.494L2197.49,250.494L2197.49,5.27Z"/>
                    </clipPath>
                    <g clip-path="url(#_clip2)">
                        <g transform="matrix(0.177635,0,0,0.165212,1455.75,48.4536)">
                            <path d="M1944.99,904.3C1964.85,904.3 1980.94,888.245 1980.94,868.441L1980.94,694.146C1980.94,670.873 1999.84,651.978 2023.11,651.978L2187.45,651.978C2210.72,651.978 2229.62,670.873 2229.62,694.146L2229.62,1143.14C2229.62,1166.41 2210.72,1185.31 2187.45,1185.31L1803.62,1185.31C1785.22,1185.31 1770.28,1170.37 1770.28,1151.96L1770.28,937.648C1770.28,919.243 1785.22,904.3 1803.62,904.3L1944.99,904.3Z" style="fill:rgb(22,103,58);"/>
                        </g>
                    </g>
                </g>
                <g>
                    <g transform="matrix(1,0,0,1,-1160.62,-78.8021)">
                        <g transform="matrix(1,3.28692e-32,-2.46519e-32,1.33333,6679.15,-16177)">
                            <path d="M1146.32,12420C1146.32,12431.3 1152.05,12440.5 1159.11,12440.5L1168.7,12440.5C1175.76,12440.5 1181.49,12431.3 1181.49,12420L1181.49,12381.2C1181.49,12369.9 1175.76,12360.7 1168.7,12360.7L1159.11,12360.7C1152.05,12360.7 1146.32,12369.9 1146.32,12381.2L1146.32,12420ZM1199.08,12420C1199.08,12431.3 1204.81,12440.5 1211.86,12440.5L1221.45,12440.5C1228.51,12440.5 1234.24,12431.3 1234.24,12420L1234.24,12381.2C1234.24,12369.9 1228.51,12360.7 1221.45,12360.7L1211.86,12360.7C1204.81,12360.7 1199.08,12369.9 1199.08,12381.2L1199.08,12420ZM1253.7,12420C1253.7,12431.3 1259.43,12440.5 1266.49,12440.5L1276.08,12440.5C1283.14,12440.5 1288.87,12431.3 1288.87,12420L1288.87,12381.2C1288.87,12369.9 1283.14,12360.7 1276.08,12360.7L1266.49,12360.7C1259.43,12360.7 1253.7,12369.9 1253.7,12381.2L1253.7,12420ZM1307.39,12420C1307.39,12431.3 1313.12,12440.5 1320.18,12440.5L1329.77,12440.5C1336.83,12440.5 1342.56,12431.3 1342.56,12420L1342.56,12381.2C1342.56,12369.9 1336.83,12360.7 1329.77,12360.7L1320.18,12360.7C1313.12,12360.7 1307.39,12369.9 1307.39,12381.2L1307.39,12420ZM1360.15,12420C1360.15,12431.3 1365.88,12440.5 1372.94,12440.5L1382.53,12440.5C1389.59,12440.5 1395.32,12431.3 1395.32,12420L1395.32,12381.2C1395.32,12369.9 1389.59,12360.7 1382.53,12360.7L1372.94,12360.7C1365.88,12360.7 1360.15,12369.9 1360.15,12381.2L1360.15,12420ZM1414.78,12420C1414.78,12431.3 1420.51,12440.5 1427.56,12440.5L1437.15,12440.5C1444.21,12440.5 1449.94,12431.3 1449.94,12420L1449.94,12381.2C1449.94,12369.9 1444.21,12360.7 1437.15,12360.7L1427.56,12360.7C1420.51,12360.7 1414.78,12369.9 1414.78,12381.2L1414.78,12420Z" style="fill:rgb(140,147,152);"/>
                        </g>
                        <g transform="matrix(3.89489e-17,0.850753,-1.30791,1.07171e-16,8901.43,-426.023)">
                            <path d="M930.194,584.906C930.194,577.804 918.375,572.038 903.817,572.038L692.806,572.038C678.248,572.038 666.429,577.804 666.429,584.906L666.429,827.745C666.429,834.847 678.248,840.613 692.806,840.613L903.817,840.613C918.375,840.613 930.194,834.847 930.194,827.745L930.194,584.906Z" style="fill:rgb(113,99,98);"/>
                            <clipPath id="_clip3">
                                <path d="M930.194,584.906C930.194,577.804 918.375,572.038 903.817,572.038L692.806,572.038C678.248,572.038 666.429,577.804 666.429,584.906L666.429,827.745C666.429,834.847 678.248,840.613 692.806,840.613L903.817,840.613C918.375,840.613 930.194,834.847 930.194,827.745L930.194,584.906Z"/>
                            </clipPath>
                            <g clip-path="url(#_clip3)">
                                <g transform="matrix(2.17671,1.64033e-20,-3.63569e-20,1.05834,-1095.35,-120.471)">
                                    <path d="M916.642,654.334C925.513,654.334 932.715,661.536 932.715,670.407L932.715,893.885C932.715,902.755 925.513,909.958 916.642,909.958L892.362,909.958C901.123,909.958 908.237,902.844 908.237,894.083L908.237,670.209C908.237,661.447 901.123,654.334 892.362,654.334L916.642,654.334Z" style="fill-opacity:0.21;"/>
                                </g>
                            </g>
                        </g>
                    </g>
                    <g transform="matrix(1,0,0,1,-763.279,-78.8021)">
                        <g transform="matrix(1,3.28692e-32,-2.46519e-32,1.33333,6679.15,-16177)">
                            <path d="M1146.32,12420C1146.32,12431.3 1152.05,12440.5 1159.11,12440.5L1168.7,12440.5C1175.76,12440.5 1181.49,12431.3 1181.49,12420L1181.49,12381.2C1181.49,12369.9 1175.76,12360.7 1168.7,12360.7L1159.11,12360.7C1152.05,12360.7 1146.32,12369.9 1146.32,12381.2L1146.32,12420ZM1199.08,12420C1199.08,12431.3 1204.81,12440.5 1211.86,12440.5L1221.45,12440.5C1228.51,12440.5 1234.24,12431.3 1234.24,12420L1234.24,12381.2C1234.24,12369.9 1228.51,12360.7 1221.45,12360.7L1211.86,12360.7C1204.81,12360.7 1199.08,12369.9 1199.08,12381.2L1199.08,12420ZM1253.7,12420C1253.7,12431.3 1259.43,12440.5 1266.49,12440.5L1276.08,12440.5C1283.14,12440.5 1288.87,12431.3 1288.87,12420L1288.87,12381.2C1288.87,12369.9 1283.14,12360.7 1276.08,12360.7L1266.49,12360.7C1259.43,12360.7 1253.7,12369.9 1253.7,12381.2L1253.7,12420ZM1307.39,12420C1307.39,12431.3 1313.12,12440.5 1320.18,12440.5L1329.77,12440.5C1336.83,12440.5 1342.56,12431.3 1342.56,12420L1342.56,12381.2C1342.56,12369.9 1336.83,12360.7 1329.77,12360.7L1320.18,12360.7C1313.12,12360.7 1307.39,12369.9 1307.39,12381.2L1307.39,12420ZM1360.15,12420C1360.15,12431.3 1365.88,12440.5 1372.94,12440.5L1382.53,12440.5C1389.59,12440.5 1395.32,12431.3 1395.32,12420L1395.32,12381.2C1395.32,12369.9 1389.59,12360.7 1382.53,12360.7L1372.94,12360.7C1365.88,12360.7 1360.15,12369.9 1360.15,12381.2L1360.15,12420ZM1414.78,12420C1414.78,12431.3 1420.51,12440.5 1427.56,12440.5L1437.15,12440.5C1444.21,12440.5 1449.94,12431.3 1449.94,12420L1449.94,12381.2C1449.94,12369.9 1444.21,12360.7 1437.15,12360.7L1427.56,12360.7C1420.51,12360.7 1414.78,12369.9 1414.78,12381.2L1414.78,12420Z" style="fill:rgb(140,147,152);"/>
                        </g>
                        <g transform="matrix(3.89489e-17,0.850753,-1.30791,1.07171e-16,8901.43,-426.023)">
                            <path d="M930.194,584.906C930.194,577.804 918.375,572.038 903.817,572.038L692.806,572.038C678.248,572.038 666.429,577.804 666.429,584.906L666.429,827.745C666.429,834.847 678.248,840.613 692.806,840.613L903.817,840.613C918.375,840.613 930.194,834.847 930.194,827.745L930.194,584.906Z" style="fill:rgb(113,99,98);"/>
                            <clipPath id="_clip4">
                                <path d="M930.194,584.906C930.194,577.804 918.375,572.038 903.817,572.038L692.806,572.038C678.248,572.038 666.429,577.804 666.429,584.906L666.429,827.745C666.429,834.847 678.248,840.613 692.806,840.613L903.817,840.613C918.375,840.613 930.194,834.847 930.194,827.745L930.194,584.906Z"/>
                            </clipPath>
                            <g clip-path="url(#_clip4)">
                                <g transform="matrix(2.17671,1.64033e-20,-3.63569e-20,1.05834,-1095.35,-120.471)">
                                    <path d="M916.642,654.334C925.513,654.334 932.715,661.536 932.715,670.407L932.715,893.885C932.715,902.755 925.513,909.958 916.642,909.958L892.362,909.958C901.123,909.958 908.237,902.844 908.237,894.083L908.237,670.209C908.237,661.447 901.123,654.334 892.362,654.334L916.642,654.334Z" style="fill-opacity:0.21;"/>
                                </g>
                            </g>
                        </g>
                    </g>
                    <g transform="matrix(1,0,0,1,-989.873,1600.33)">
                        <g transform="matrix(1,3.28692e-32,-2.46519e-32,1.33333,6679.15,-16177)">
                            <path d="M1146.32,12420C1146.32,12431.3 1152.05,12440.5 1159.11,12440.5L1168.7,12440.5C1175.76,12440.5 1181.49,12431.3 1181.49,12420L1181.49,12381.2C1181.49,12369.9 1175.76,12360.7 1168.7,12360.7L1159.11,12360.7C1152.05,12360.7 1146.32,12369.9 1146.32,12381.2L1146.32,12420ZM1199.08,12420C1199.08,12431.3 1204.81,12440.5 1211.86,12440.5L1221.45,12440.5C1228.51,12440.5 1234.24,12431.3 1234.24,12420L1234.24,12381.2C1234.24,12369.9 1228.51,12360.7 1221.45,12360.7L1211.86,12360.7C1204.81,12360.7 1199.08,12369.9 1199.08,12381.2L1199.08,12420ZM1253.7,12420C1253.7,12431.3 1259.43,12440.5 1266.49,12440.5L1276.08,12440.5C1283.14,12440.5 1288.87,12431.3 1288.87,12420L1288.87,12381.2C1288.87,12369.9 1283.14,12360.7 1276.08,12360.7L1266.49,12360.7C1259.43,12360.7 1253.7,12369.9 1253.7,12381.2L1253.7,12420ZM1307.39,12420C1307.39,12431.3 1313.12,12440.5 1320.18,12440.5L1329.77,12440.5C1336.83,12440.5 1342.56,12431.3 1342.56,12420L1342.56,12381.2C1342.56,12369.9 1336.83,12360.7 1329.77,12360.7L1320.18,12360.7C1313.12,12360.7 1307.39,12369.9 1307.39,12381.2L1307.39,12420ZM1360.15,12420C1360.15,12431.3 1365.88,12440.5 1372.94,12440.5L1382.53,12440.5C1389.59,12440.5 1395.32,12431.3 1395.32,12420L1395.32,12381.2C1395.32,12369.9 1389.59,12360.7 1382.53,12360.7L1372.94,12360.7C1365.88,12360.7 1360.15,12369.9 1360.15,12381.2L1360.15,12420ZM1414.78,12420C1414.78,12431.3 1420.51,12440.5 1427.56,12440.5L1437.15,12440.5C1444.21,12440.5 1449.94,12431.3 1449.94,12420L1449.94,12381.2C1449.94,12369.9 1444.21,12360.7 1437.15,12360.7L1427.56,12360.7C1420.51,12360.7 1414.78,12369.9 1414.78,12381.2L1414.78,12420Z" style="fill:rgb(140,147,152);"/>
                        </g>
                        <g transform="matrix(3.89489e-17,0.850753,-1.30791,1.07171e-16,8901.43,-426.023)">
                            <path d="M930.194,584.906C930.194,577.804 918.375,572.038 903.817,572.038L692.806,572.038C678.248,572.038 666.429,577.804 666.429,584.906L666.429,827.745C666.429,834.847 678.248,840.613 692.806,840.613L903.817,840.613C918.375,840.613 930.194,834.847 930.194,827.745L930.194,584.906Z" style="fill:rgb(113,99,98);"/>
                            <clipPath id="_clip5">
                                <path d="M930.194,584.906C930.194,577.804 918.375,572.038 903.817,572.038L692.806,572.038C678.248,572.038 666.429,577.804 666.429,584.906L666.429,827.745C666.429,834.847 678.248,840.613 692.806,840.613L903.817,840.613C918.375,840.613 930.194,834.847 930.194,827.745L930.194,584.906Z"/>
                            </clipPath>
                            <g clip-path="url(#_clip5)">
                                <g transform="matrix(2.17671,1.64033e-20,-3.63569e-20,1.05834,-1095.35,-120.471)">
                                    <path d="M916.642,654.334C925.513,654.334 932.715,661.536 932.715,670.407L932.715,893.885C932.715,902.755 925.513,909.958 916.642,909.958L892.362,909.958C901.123,909.958 908.237,902.844 908.237,894.083L908.237,670.209C908.237,661.447 901.123,654.334 892.362,654.334L916.642,654.334Z" style="fill-opacity:0.21;"/>
                                </g>
                            </g>
                        </g>
                    </g>
                    <g transform="matrix(1,0,0,1,0,-48.7457)">
                        <g transform="matrix(1,3.28692e-32,-2.46519e-32,1.33333,5653.37,-14966.9)">
                            <path d="M1146.32,12420C1146.32,12431.3 1152.05,12440.5 1159.11,12440.5L1168.7,12440.5C1175.76,12440.5 1181.49,12431.3 1181.49,12420L1181.49,12381.2C1181.49,12369.9 1175.76,12360.7 1168.7,12360.7L1159.11,12360.7C1152.05,12360.7 1146.32,12369.9 1146.32,12381.2L1146.32,12420ZM1199.08,12420C1199.08,12431.3 1204.81,12440.5 1211.86,12440.5L1221.45,12440.5C1228.51,12440.5 1234.24,12431.3 1234.24,12420L1234.24,12381.2C1234.24,12369.9 1228.51,12360.7 1221.45,12360.7L1211.86,12360.7C1204.81,12360.7 1199.08,12369.9 1199.08,12381.2L1199.08,12420ZM1253.7,12420C1253.7,12431.3 1259.43,12440.5 1266.49,12440.5L1276.08,12440.5C1283.14,12440.5 1288.87,12431.3 1288.87,12420L1288.87,12381.2C1288.87,12369.9 1283.14,12360.7 1276.08,12360.7L1266.49,12360.7C1259.43,12360.7 1253.7,12369.9 1253.7,12381.2L1253.7,12420ZM1307.39,12420C1307.39,12431.3 1313.12,12440.5 1320.18,12440.5L1329.77,12440.5C1336.83,12440.5 1342.56,12431.3 1342.56,12420L1342.56,12381.2C1342.56,12369.9 1336.83,12360.7 1329.77,12360.7L1320.18,12360.7C1313.12,12360.7 1307.39,12369.9 1307.39,12381.2L1307.39,12420ZM1360.15,12420C1360.15,12431.3 1365.88,12440.5 1372.94,12440.5L1382.53,12440.5C1389.59,12440.5 1395.32,12431.3 1395.32,12420L1395.32,12381.2C1395.32,12369.9 1389.59,12360.7 1382.53,12360.7L1372.94,12360.7C1365.88,12360.7 1360.15,12369.9 1360.15,12381.2L1360.15,12420ZM1414.78,12420C1414.78,12431.3 1420.51,12440.5 1427.56,12440.5L1437.15,12440.5C1444.21,12440.5 1449.94,12431.3 1449.94,12420L1449.94,12381.2C1449.94,12369.9 1444.21,12360.7 1437.15,12360.7L1427.56,12360.7C1420.51,12360.7 1414.78,12369.9 1414.78,12381.2L1414.78,12420ZM1468.47,12420C1468.47,12431.3 1474.2,12440.5 1481.26,12440.5L1490.85,12440.5C1497.9,12440.5 1503.63,12431.3 1503.63,12420L1503.63,12381.2C1503.63,12369.9 1497.9,12360.7 1490.85,12360.7L1481.26,12360.7C1474.2,12360.7 1468.47,12369.9 1468.47,12381.2L1468.47,12420ZM1521.22,12420C1521.22,12431.3 1526.95,12440.5 1534.01,12440.5L1543.6,12440.5C1550.66,12440.5 1556.39,12431.3 1556.39,12420L1556.39,12381.2C1556.39,12369.9 1550.66,12360.7 1543.6,12360.7L1534.01,12360.7C1526.95,12360.7 1521.22,12369.9 1521.22,12381.2L1521.22,12420ZM1575.85,12420C1575.85,12431.3 1581.58,12440.5 1588.64,12440.5L1598.23,12440.5C1605.29,12440.5 1611.02,12431.3 1611.02,12420L1611.02,12381.2C1611.02,12369.9 1605.29,12360.7 1598.23,12360.7L1588.64,12360.7C1581.58,12360.7 1575.85,12369.9 1575.85,12381.2L1575.85,12420Z" style="fill:rgb(140,147,152);"/>
                        </g>
                        <g transform="matrix(1,3.28692e-32,-2.46519e-32,1.33333,5653.37,-15731.3)">
                            <path d="M1146.32,12420C1146.32,12431.3 1152.05,12440.5 1159.11,12440.5L1168.7,12440.5C1175.76,12440.5 1181.49,12431.3 1181.49,12420L1181.49,12381.2C1181.49,12369.9 1175.76,12360.7 1168.7,12360.7L1159.11,12360.7C1152.05,12360.7 1146.32,12369.9 1146.32,12381.2L1146.32,12420ZM1199.08,12420C1199.08,12431.3 1204.81,12440.5 1211.86,12440.5L1221.45,12440.5C1228.51,12440.5 1234.24,12431.3 1234.24,12420L1234.24,12381.2C1234.24,12369.9 1228.51,12360.7 1221.45,12360.7L1211.86,12360.7C1204.81,12360.7 1199.08,12369.9 1199.08,12381.2L1199.08,12420ZM1253.7,12420C1253.7,12431.3 1259.43,12440.5 1266.49,12440.5L1276.08,12440.5C1283.14,12440.5 1288.87,12431.3 1288.87,12420L1288.87,12381.2C1288.87,12369.9 1283.14,12360.7 1276.08,12360.7L1266.49,12360.7C1259.43,12360.7 1253.7,12369.9 1253.7,12381.2L1253.7,12420ZM1307.39,12420C1307.39,12431.3 1313.12,12440.5 1320.18,12440.5L1329.77,12440.5C1336.83,12440.5 1342.56,12431.3 1342.56,12420L1342.56,12381.2C1342.56,12369.9 1336.83,12360.7 1329.77,12360.7L1320.18,12360.7C1313.12,12360.7 1307.39,12369.9 1307.39,12381.2L1307.39,12420ZM1360.15,12420C1360.15,12431.3 1365.88,12440.5 1372.94,12440.5L1382.53,12440.5C1389.59,12440.5 1395.32,12431.3 1395.32,12420L1395.32,12381.2C1395.32,12369.9 1389.59,12360.7 1382.53,12360.7L1372.94,12360.7C1365.88,12360.7 1360.15,12369.9 1360.15,12381.2L1360.15,12420ZM1414.78,12420C1414.78,12431.3 1420.51,12440.5 1427.56,12440.5L1437.15,12440.5C1444.21,12440.5 1449.94,12431.3 1449.94,12420L1449.94,12381.2C1449.94,12369.9 1444.21,12360.7 1437.15,12360.7L1427.56,12360.7C1420.51,12360.7 1414.78,12369.9 1414.78,12381.2L1414.78,12420ZM1468.47,12420C1468.47,12431.3 1474.2,12440.5 1481.26,12440.5L1490.85,12440.5C1497.9,12440.5 1503.63,12431.3 1503.63,12420L1503.63,12381.2C1503.63,12369.9 1497.9,12360.7 1490.85,12360.7L1481.26,12360.7C1474.2,12360.7 1468.47,12369.9 1468.47,12381.2L1468.47,12420ZM1521.22,12420C1521.22,12431.3 1526.95,12440.5 1534.01,12440.5L1543.6,12440.5C1550.66,12440.5 1556.39,12431.3 1556.39,12420L1556.39,12381.2C1556.39,12369.9 1550.66,12360.7 1543.6,12360.7L1534.01,12360.7C1526.95,12360.7 1521.22,12369.9 1521.22,12381.2L1521.22,12420ZM1575.85,12420C1575.85,12431.3 1581.58,12440.5 1588.64,12440.5L1598.23,12440.5C1605.29,12440.5 1611.02,12431.3 1611.02,12420L1611.02,12381.2C1611.02,12369.9 1605.29,12360.7 1598.23,12360.7L1588.64,12360.7C1581.58,12360.7 1575.85,12369.9 1575.85,12381.2L1575.85,12420Z" style="fill:rgb(185,185,185);"/>
                        </g>
                        <g transform="matrix(6.12323e-17,1.33333,-1,8.16431e-17,19151.8,-661.888)">
                            <path d="M1146.32,12420C1146.32,12431.3 1152.05,12440.5 1159.11,12440.5L1168.7,12440.5C1175.76,12440.5 1181.49,12431.3 1181.49,12420L1181.49,12381.2C1181.49,12369.9 1175.76,12360.7 1168.7,12360.7L1159.11,12360.7C1152.05,12360.7 1146.32,12369.9 1146.32,12381.2L1146.32,12420ZM1199.08,12420C1199.08,12431.3 1204.81,12440.5 1211.86,12440.5L1221.45,12440.5C1228.51,12440.5 1234.24,12431.3 1234.24,12420L1234.24,12381.2C1234.24,12369.9 1228.51,12360.7 1221.45,12360.7L1211.86,12360.7C1204.81,12360.7 1199.08,12369.9 1199.08,12381.2L1199.08,12420ZM1253.7,12420C1253.7,12431.3 1259.43,12440.5 1266.49,12440.5L1276.08,12440.5C1283.14,12440.5 1288.87,12431.3 1288.87,12420L1288.87,12381.2C1288.87,12369.9 1283.14,12360.7 1276.08,12360.7L1266.49,12360.7C1259.43,12360.7 1253.7,12369.9 1253.7,12381.2L1253.7,12420ZM1307.39,12420C1307.39,12431.3 1313.12,12440.5 1320.18,12440.5L1329.77,12440.5C1336.83,12440.5 1342.56,12431.3 1342.56,12420L1342.56,12381.2C1342.56,12369.9 1336.83,12360.7 1329.77,12360.7L1320.18,12360.7C1313.12,12360.7 1307.39,12369.9 1307.39,12381.2L1307.39,12420ZM1360.15,12420C1360.15,12431.3 1365.88,12440.5 1372.94,12440.5L1382.53,12440.5C1389.59,12440.5 1395.32,12431.3 1395.32,12420L1395.32,12381.2C1395.32,12369.9 1389.59,12360.7 1382.53,12360.7L1372.94,12360.7C1365.88,12360.7 1360.15,12369.9 1360.15,12381.2L1360.15,12420ZM1414.78,12420C1414.78,12431.3 1420.51,12440.5 1427.56,12440.5L1437.15,12440.5C1444.21,12440.5 1449.94,12431.3 1449.94,12420L1449.94,12381.2C1449.94,12369.9 1444.21,12360.7 1437.15,12360.7L1427.56,12360.7C1420.51,12360.7 1414.78,12369.9 1414.78,12381.2L1414.78,12420ZM1468.47,12420C1468.47,12431.3 1474.2,12440.5 1481.26,12440.5L1490.85,12440.5C1497.9,12440.5 1503.63,12431.3 1503.63,12420L1503.63,12381.2C1503.63,12369.9 1497.9,12360.7 1490.85,12360.7L1481.26,12360.7C1474.2,12360.7 1468.47,12369.9 1468.47,12381.2L1468.47,12420ZM1521.22,12420C1521.22,12431.3 1526.95,12440.5 1534.01,12440.5L1543.6,12440.5C1550.66,12440.5 1556.39,12431.3 1556.39,12420L1556.39,12381.2C1556.39,12369.9 1550.66,12360.7 1543.6,12360.7L1534.01,12360.7C1526.95,12360.7 1521.22,12369.9 1521.22,12381.2L1521.22,12420ZM1575.85,12420C1575.85,12431.3 1581.58,12440.5 1588.64,12440.5L1598.23,12440.5C1605.29,12440.5 1611.02,12431.3 1611.02,12420L1611.02,12381.2C1611.02,12369.9 1605.29,12360.7 1598.23,12360.7L1588.64,12360.7C1581.58,12360.7 1575.85,12369.9 1575.85,12381.2L1575.85,12420Z" style="fill:rgb(185,185,185);"/>
                        </g>
                        <g transform="matrix(6.12323e-17,1.33333,-1,8.16431e-17,19731.4,-661.888)">
                            <path d="M1146.32,12420C1146.32,12431.3 1152.05,12440.5 1159.11,12440.5L1168.7,12440.5C1175.76,12440.5 1181.49,12431.3 1181.49,12420L1181.49,12381.2C1181.49,12369.9 1175.76,12360.7 1168.7,12360.7L1159.11,12360.7C1152.05,12360.7 1146.32,12369.9 1146.32,12381.2L1146.32,12420ZM1199.08,12420C1199.08,12431.3 1204.81,12440.5 1211.86,12440.5L1221.45,12440.5C1228.51,12440.5 1234.24,12431.3 1234.24,12420L1234.24,12381.2C1234.24,12369.9 1228.51,12360.7 1221.45,12360.7L1211.86,12360.7C1204.81,12360.7 1199.08,12369.9 1199.08,12381.2L1199.08,12420ZM1253.7,12420C1253.7,12431.3 1259.43,12440.5 1266.49,12440.5L1276.08,12440.5C1283.14,12440.5 1288.87,12431.3 1288.87,12420L1288.87,12381.2C1288.87,12369.9 1283.14,12360.7 1276.08,12360.7L1266.49,12360.7C1259.43,12360.7 1253.7,12369.9 1253.7,12381.2L1253.7,12420ZM1307.39,12420C1307.39,12431.3 1313.12,12440.5 1320.18,12440.5L1329.77,12440.5C1336.83,12440.5 1342.56,12431.3 1342.56,12420L1342.56,12381.2C1342.56,12369.9 1336.83,12360.7 1329.77,12360.7L1320.18,12360.7C1313.12,12360.7 1307.39,12369.9 1307.39,12381.2L1307.39,12420ZM1360.15,12420C1360.15,12431.3 1365.88,12440.5 1372.94,12440.5L1382.53,12440.5C1389.59,12440.5 1395.32,12431.3 1395.32,12420L1395.32,12381.2C1395.32,12369.9 1389.59,12360.7 1382.53,12360.7L1372.94,12360.7C1365.88,12360.7 1360.15,12369.9 1360.15,12381.2L1360.15,12420ZM1414.78,12420C1414.78,12431.3 1420.51,12440.5 1427.56,12440.5L1437.15,12440.5C1444.21,12440.5 1449.94,12431.3 1449.94,12420L1449.94,12381.2C1449.94,12369.9 1444.21,12360.7 1437.15,12360.7L1427.56,12360.7C1420.51,12360.7 1414.78,12369.9 1414.78,12381.2L1414.78,12420ZM1468.47,12420C1468.47,12431.3 1474.2,12440.5 1481.26,12440.5L1490.85,12440.5C1497.9,12440.5 1503.63,12431.3 1503.63,12420L1503.63,12381.2C1503.63,12369.9 1497.9,12360.7 1490.85,12360.7L1481.26,12360.7C1474.2,12360.7 1468.47,12369.9 1468.47,12381.2L1468.47,12420ZM1521.22,12420C1521.22,12431.3 1526.95,12440.5 1534.01,12440.5L1543.6,12440.5C1550.66,12440.5 1556.39,12431.3 1556.39,12420L1556.39,12381.2C1556.39,12369.9 1550.66,12360.7 1543.6,12360.7L1534.01,12360.7C1526.95,12360.7 1521.22,12369.9 1521.22,12381.2L1521.22,12420ZM1575.85,12420C1575.85,12431.3 1581.58,12440.5 1588.64,12440.5L1598.23,12440.5C1605.29,12440.5 1611.02,12431.3 1611.02,12420L1611.02,12381.2C1611.02,12369.9 1605.29,12360.7 1598.23,12360.7L1588.64,12360.7C1581.58,12360.7 1575.85,12369.9 1575.85,12381.2L1575.85,12420Z" style="fill:rgb(185,185,185);"/>
                        </g>
                        <g>
                            <g transform="matrix(1.302e-16,2.84465,-2.085,1.70799e-16,8513.69,-1090.23)">
                                <path d="M930.194,588.235C930.194,579.296 923.101,572.038 914.365,572.038L682.258,572.038C673.522,572.038 666.429,579.296 666.429,588.235L666.429,824.416C666.429,833.355 673.522,840.613 682.258,840.613L914.365,840.613C923.101,840.613 930.194,833.355 930.194,824.416L930.194,588.235Z" style="fill:rgb(113,99,98);"/>
                            </g>
                            <g transform="matrix(1.28653e-16,2.81085,-2.10106,1.72115e-16,8525.81,-1059.8)">
                                <path d="M914.482,573.436C923.353,573.436 930.555,580.638 930.555,589.509L930.555,823.885C930.555,832.755 923.352,839.958 914.482,839.958L890.202,839.958C898.963,839.958 906.077,832.844 906.077,824.083L906.077,589.311C906.077,580.549 898.963,573.436 890.202,573.436L914.482,573.436Z" style="fill-opacity:0.21;"/>
                            </g>
                            <g transform="matrix(2.10814,-6.87882e-16,5.15045e-16,2.80142,5357.96,-799.705)">
                                <g transform="matrix(1,0,0,1,0,-0.328383)">
                                    <path d="M872.735,622.813C878.328,622.813 882.868,627.354 882.868,632.946L882.868,735.634C882.868,737.173 882.257,738.648 881.171,739.734C873.094,747.811 838.605,782.3 830.788,790.118C829.776,791.129 828.406,791.697 826.978,791.697C811.773,791.697 723.97,791.697 723.97,791.697C718.378,791.697 713.837,787.157 713.837,781.564L713.837,632.946C713.837,627.354 718.377,622.813 723.97,622.813L872.735,622.813Z" style="fill:rgb(134,119,118);"/>
                                </g>
                                <path d="M855.612,622.484L872.735,622.484C878.328,622.485 882.868,627.025 882.868,632.617L882.868,732.672C882.868,735.897 881.586,738.99 879.306,741.271C869.479,751.097 842.087,778.49 832.54,788.036C830.407,790.17 827.513,791.369 824.495,791.369C804.039,791.369 723.97,791.369 723.97,791.369C718.378,791.369 713.837,786.828 713.837,781.236L713.837,773.636L802.873,773.636C805.891,773.636 808.785,772.437 810.919,770.304C819.64,761.583 843.077,738.146 852.05,729.173C854.331,726.892 855.612,723.799 855.612,720.573L855.612,622.484Z" style="fill:rgb(127,110,109);"/>
                            </g>
                        </g>
                    </g>
                    <g id="Pins" transform="matrix(1.27714,0,0,1.70858,3591.58,9.98481)">
                        <path d="M1757.67,968.101C1756.71,968.162 1755.74,968.192 1754.77,968.192L1663.06,968.192C1637.76,968.192 1617.21,947.646 1617.21,922.34L1617.21,297.918C1617.21,272.611 1637.76,252.066 1663.06,252.066L1754.77,252.066C1755.74,252.066 1756.71,252.096 1757.67,252.156L1757.67,968.101Z" style="fill:rgb(236,180,0);fill-opacity:0.27;"/>
                        <clipPath id="_clip6">
                            <path d="M1757.67,968.101C1756.71,968.162 1755.74,968.192 1754.77,968.192L1663.06,968.192C1637.76,968.192 1617.21,947.646 1617.21,922.34L1617.21,297.918C1617.21,272.611 1637.76,252.066 1663.06,252.066L1754.77,252.066C1755.74,252.066 1756.71,252.096 1757.67,252.156L1757.67,968.101Z"/>
                        </clipPath>
                        <g clip-path="url(#_clip6)">
                            <g transform="matrix(1,0,0,1,-1.44898,-1.13327)">
                                <path d="M1757.67,889.502L1757.67,937.467L1656.88,937.467C1643.64,937.467 1632.89,926.721 1632.89,913.484C1632.89,900.248 1643.64,889.502 1656.88,889.502L1757.67,889.502ZM1757.67,820.216L1757.67,868.181L1656.88,868.181C1643.64,868.181 1632.89,857.435 1632.89,844.198C1632.89,830.962 1643.64,820.216 1656.88,820.216L1757.67,820.216ZM1757.67,750.93L1757.67,798.895L1656.88,798.895C1643.64,798.895 1632.89,788.149 1632.89,774.912C1632.89,761.676 1643.64,750.93 1656.88,750.93L1757.67,750.93ZM1757.67,681.644L1757.67,729.609L1656.88,729.609C1643.64,729.609 1632.89,718.863 1632.89,705.627C1632.89,692.39 1643.64,681.644 1656.88,681.644L1757.67,681.644ZM1757.67,612.358L1757.67,660.323L1656.88,660.323C1643.64,660.323 1632.89,649.577 1632.89,636.341C1632.89,623.104 1643.64,612.358 1656.88,612.358L1757.67,612.358ZM1757.67,543.072L1757.67,591.037L1656.88,591.037C1643.64,591.037 1632.89,580.291 1632.89,567.055C1632.89,553.818 1643.64,543.072 1656.88,543.072L1757.67,543.072ZM1757.67,473.786L1757.67,521.751L1656.88,521.751C1643.64,521.751 1632.89,511.005 1632.89,497.769C1632.89,484.532 1643.64,473.786 1656.88,473.786L1757.67,473.786ZM1757.67,355.16L1757.67,403.126L1656.88,403.126C1643.64,403.126 1632.89,392.38 1632.89,379.143C1632.89,365.907 1643.64,355.16 1656.88,355.16L1757.67,355.16ZM1757.67,285.945L1757.67,333.911L1656.88,333.911C1643.64,333.911 1632.89,323.164 1632.89,309.928C1632.89,296.692 1643.64,285.945 1656.88,285.945L1757.67,285.945Z" style="fill:rgb(236,180,0);"/>
                            </g>
                        </g>
                    </g>
                    <g transform="matrix(1.20286,0,0,1.27856,5801.69,25.6729)">
                        <g id="Dip-Switches" serif:id="Dip Switches">
                            <path id="Dip-Switches1" serif:id="Dip Switches" d="M181.755,300.8C181.755,293.455 177.001,287.491 171.145,287.491L96.366,287.491C90.51,287.491 85.755,293.455 85.755,300.8L85.755,532.324C85.755,539.67 90.51,545.633 96.366,545.633L171.145,545.633C177.001,545.633 181.755,539.67 181.755,532.324L181.755,300.8Z" style="fill:rgb(16,106,168);"/>
                            <clipPath id="_clip7">
                                <path id="Dip-Switches2" serif:id="Dip Switches" d="M181.755,300.8C181.755,293.455 177.001,287.491 171.145,287.491L96.366,287.491C90.51,287.491 85.755,293.455 85.755,300.8L85.755,532.324C85.755,539.67 90.51,545.633 96.366,545.633L171.145,545.633C177.001,545.633 181.755,539.67 181.755,532.324L181.755,300.8Z"/>
                            </clipPath>
                            <g clip-path="url(#_clip7)">
                                <g transform="matrix(1,0,0,1.25862,0,-86.6659)">
                                    <path d="M171.145,318.535C171.145,314.209 167.62,310.696 163.279,310.696L104.231,310.696C99.89,310.696 96.366,314.209 96.366,318.535L96.366,334.212C96.366,338.539 99.89,342.051 104.231,342.051L163.279,342.051C167.62,342.051 171.145,338.539 171.145,334.212L171.145,318.535Z" style="fill:rgb(178,178,178);"/>
                                    <clipPath id="_clip8">
                                        <path d="M171.145,318.535C171.145,314.209 167.62,310.696 163.279,310.696L104.231,310.696C99.89,310.696 96.366,314.209 96.366,318.535L96.366,334.212C96.366,338.539 99.89,342.051 104.231,342.051L163.279,342.051C167.62,342.051 171.145,338.539 171.145,334.212L171.145,318.535Z"/>
                                    </clipPath>
                                    <g clip-path="url(#_clip8)">
                                        <g transform="matrix(0.822806,0,0,0.822806,50.3623,8.78381)">
                                            <path d="M146.793,376.601C146.793,371.361 142.524,367.106 137.266,367.106L118.213,367.106C112.955,367.106 108.686,371.361 108.686,376.601L108.686,395.719C108.686,400.959 112.955,405.214 118.213,405.214L137.266,405.214C142.524,405.214 146.793,400.959 146.793,395.719L146.793,376.601Z" style="fill:white;"/>
                                        </g>
                                    </g>
                                </g>
                                <g transform="matrix(1,0,0,1.25862,0,-26.3073)">
                                    <path d="M171.145,318.535C171.145,314.209 167.62,310.696 163.279,310.696L104.231,310.696C99.89,310.696 96.366,314.209 96.366,318.535L96.366,334.212C96.366,338.539 99.89,342.051 104.231,342.051L163.279,342.051C167.62,342.051 171.145,338.539 171.145,334.212L171.145,318.535Z" style="fill:rgb(178,178,178);"/>
                                    <clipPath id="_clip9">
                                        <path d="M171.145,318.535C171.145,314.209 167.62,310.696 163.279,310.696L104.231,310.696C99.89,310.696 96.366,314.209 96.366,318.535L96.366,334.212C96.366,338.539 99.89,342.051 104.231,342.051L163.279,342.051C167.62,342.051 171.145,338.539 171.145,334.212L171.145,318.535Z"/>
                                    </clipPath>
                                    <g clip-path="url(#_clip9)">
                                        <g transform="matrix(0.822806,0,0,0.822806,50.3623,8.78381)">
                                            <path d="M146.793,376.601C146.793,371.361 142.524,367.106 137.266,367.106L118.213,367.106C112.955,367.106 108.686,371.361 108.686,376.601L108.686,395.719C108.686,400.959 112.955,405.214 118.213,405.214L137.266,405.214C142.524,405.214 146.793,400.959 146.793,395.719L146.793,376.601Z" style="fill:white;"/>
                                        </g>
                                    </g>
                                </g>
                                <g transform="matrix(1,0,0,1.25862,0,34.0514)">
                                    <path d="M171.145,318.535C171.145,314.209 167.62,310.696 163.279,310.696L104.231,310.696C99.89,310.696 96.366,314.209 96.366,318.535L96.366,334.212C96.366,338.539 99.89,342.051 104.231,342.051L163.279,342.051C167.62,342.051 171.145,338.539 171.145,334.212L171.145,318.535Z" style="fill:rgb(178,178,178);"/>
                                    <clipPath id="_clip10">
                                        <path d="M171.145,318.535C171.145,314.209 167.62,310.696 163.279,310.696L104.231,310.696C99.89,310.696 96.366,314.209 96.366,318.535L96.366,334.212C96.366,338.539 99.89,342.051 104.231,342.051L163.279,342.051C167.62,342.051 171.145,338.539 171.145,334.212L171.145,318.535Z"/>
                                    </clipPath>
                                    <g clip-path="url(#_clip10)">
                                        <g transform="matrix(0.822806,0,0,0.822806,50.3623,8.78381)">
                                            <path d="M146.793,376.601C146.793,371.361 142.524,367.106 137.266,367.106L118.213,367.106C112.955,367.106 108.686,371.361 108.686,376.601L108.686,395.719C108.686,400.959 112.955,405.214 118.213,405.214L137.266,405.214C142.524,405.214 146.793,400.959 146.793,395.719L146.793,376.601Z" style="fill:white;"/>
                                        </g>
                                    </g>
                                </g>
                                <g transform="matrix(1,0,0,1.25862,0,94.4101)">
                                    <path d="M171.145,318.535C171.145,314.209 167.62,310.696 163.279,310.696L104.231,310.696C99.89,310.696 96.366,314.209 96.366,318.535L96.366,334.212C96.366,338.539 99.89,342.051 104.231,342.051L163.279,342.051C167.62,342.051 171.145,338.539 171.145,334.212L171.145,318.535Z" style="fill:rgb(178,178,178);"/>
                                    <clipPath id="_clip11">
                                        <path d="M171.145,318.535C171.145,314.209 167.62,310.696 163.279,310.696L104.231,310.696C99.89,310.696 96.366,314.209 96.366,318.535L96.366,334.212C96.366,338.539 99.89,342.051 104.231,342.051L163.279,342.051C167.62,342.051 171.145,338.539 171.145,334.212L171.145,318.535Z"/>
                                    </clipPath>
                                    <g clip-path="url(#_clip11)">
                                        <g transform="matrix(0.822806,0,0,0.822806,50.3623,8.78381)">
                                            <path d="M146.793,376.601C146.793,371.361 142.524,367.106 137.266,367.106L118.213,367.106C112.955,367.106 108.686,371.361 108.686,376.601L108.686,395.719C108.686,400.959 112.955,405.214 118.213,405.214L137.266,405.214C142.524,405.214 146.793,400.959 146.793,395.719L146.793,376.601Z" style="fill:white;"/>
                                        </g>
                                    </g>
                                </g>
                            </g>
                        </g>
                    </g>
                    <g transform="matrix(1.70011,0,0,2.27444,2733.14,-459.984)">
                        <g id="Blue-Cap" serif:id="Blue Cap" transform="matrix(0.350519,0,0,0.350519,1197.97,359.416)">
                            <g transform="matrix(1,0,0,1,1650,0)">
                                <path d="M573.546,590.424C573.546,566.14 553.764,546.424 529.398,546.424L334.767,546.424C310.401,546.424 290.619,566.14 290.619,590.424C290.619,614.708 310.401,634.424 334.767,634.424L529.398,634.424C553.764,634.424 573.546,614.708 573.546,590.424Z" style="fill:rgb(16,106,168);"/>
                            </g>
                            <g transform="matrix(0.904361,-2.17431e-17,-2.60622e-17,0.822284,1692.69,105.999)">
                                <path d="M548.085,574.003C548.085,567.55 543.305,562.311 537.417,562.311L328.721,562.311C322.834,562.311 318.054,567.55 318.054,574.003C318.054,580.457 322.834,585.696 328.721,585.696L537.417,585.696C543.305,585.696 548.085,580.457 548.085,574.003Z" style="fill:white;"/>
                            </g>
                        </g>
                        <g id="Blue-Cap1" serif:id="Blue Cap" transform="matrix(0.350519,0,0,0.350519,1197.97,410.438)">
                            <g transform="matrix(1,0,0,1,1650,0)">
                                <path d="M573.546,590.424C573.546,566.14 553.764,546.424 529.398,546.424L334.767,546.424C310.401,546.424 290.619,566.14 290.619,590.424C290.619,614.708 310.401,634.424 334.767,634.424L529.398,634.424C553.764,634.424 573.546,614.708 573.546,590.424Z" style="fill:rgb(16,106,168);"/>
                            </g>
                            <g transform="matrix(0.904361,-2.17431e-17,-2.60622e-17,0.822284,1692.69,105.999)">
                                <path d="M548.085,574.003C548.085,567.55 543.305,562.311 537.417,562.311L328.721,562.311C322.834,562.311 318.054,567.55 318.054,574.003C318.054,580.457 322.834,585.696 328.721,585.696L537.417,585.696C543.305,585.696 548.085,580.457 548.085,574.003Z" style="fill:white;"/>
                            </g>
                        </g>
                        <g id="Blue-Cap2" serif:id="Blue Cap" transform="matrix(0.350519,0,0,0.350519,1197.97,461.461)">
                            <g transform="matrix(1,0,0,1,1650,0)">
                                <path d="M573.546,590.424C573.546,566.14 553.764,546.424 529.398,546.424L334.767,546.424C310.401,546.424 290.619,566.14 290.619,590.424C290.619,614.708 310.401,634.424 334.767,634.424L529.398,634.424C553.764,634.424 573.546,614.708 573.546,590.424Z" style="fill:rgb(16,106,168);"/>
                            </g>
                            <g transform="matrix(0.904361,-2.17431e-17,-2.60622e-17,0.822284,1692.69,105.999)">
                                <path d="M548.085,574.003C548.085,567.55 543.305,562.311 537.417,562.311L328.721,562.311C322.834,562.311 318.054,567.55 318.054,574.003C318.054,580.457 322.834,585.696 328.721,585.696L537.417,585.696C543.305,585.696 548.085,580.457 548.085,574.003Z" style="fill:white;"/>
                            </g>
                        </g>
                        <g id="Blue-Cap3" serif:id="Blue Cap" transform="matrix(0.350519,0,0,0.350519,1197.97,512.483)">
                            <g transform="matrix(1,0,0,1,1650,0)">
                                <path d="M573.546,590.424C573.546,566.14 553.764,546.424 529.398,546.424L334.767,546.424C310.401,546.424 290.619,566.14 290.619,590.424C290.619,614.708 310.401,634.424 334.767,634.424L529.398,634.424C553.764,634.424 573.546,614.708 573.546,590.424Z" style="fill:rgb(16,106,168);"/>
                            </g>
                            <g transform="matrix(0.904361,-2.17431e-17,-2.60622e-17,0.822284,1692.69,105.999)">
                                <path d="M548.085,574.003C548.085,567.55 543.305,562.311 537.417,562.311L328.721,562.311C322.834,562.311 318.054,567.55 318.054,574.003C318.054,580.457 322.834,585.696 328.721,585.696L537.417,585.696C543.305,585.696 548.085,580.457 548.085,574.003Z" style="fill:white;"/>
                            </g>
                        </g>
                        <g id="Blue-Cap4" serif:id="Blue Cap" transform="matrix(0.350519,0,0,0.350519,1197.97,563.505)">
                            <g transform="matrix(1,0,0,1,1650,0)">
                                <path d="M573.546,590.424C573.546,566.14 553.764,546.424 529.398,546.424L334.767,546.424C310.401,546.424 290.619,566.14 290.619,590.424C290.619,614.708 310.401,634.424 334.767,634.424L529.398,634.424C553.764,634.424 573.546,614.708 573.546,590.424Z" style="fill:rgb(16,106,168);"/>
                            </g>
                            <g transform="matrix(0.904361,-2.17431e-17,-2.60622e-17,0.822284,1692.69,105.999)">
                                <path d="M548.085,574.003C548.085,567.55 543.305,562.311 537.417,562.311L328.721,562.311C322.834,562.311 318.054,567.55 318.054,574.003C318.054,580.457 322.834,585.696 328.721,585.696L537.417,585.696C543.305,585.696 548.085,580.457 548.085,574.003Z" style="fill:white;"/>
                            </g>
                        </g>
                        <g id="Blue-Cap5" serif:id="Blue Cap" transform="matrix(0.350519,0,0,0.350519,1197.97,614.528)">
                            <g transform="matrix(1,0,0,1,1650,0)">
                                <path d="M573.546,590.424C573.546,566.14 553.764,546.424 529.398,546.424L334.767,546.424C310.401,546.424 290.619,566.14 290.619,590.424C290.619,614.708 310.401,634.424 334.767,634.424L529.398,634.424C553.764,634.424 573.546,614.708 573.546,590.424Z" style="fill:rgb(16,106,168);"/>
                            </g>
                            <g transform="matrix(0.904361,-2.17431e-17,-2.60622e-17,0.822284,1692.69,105.999)">
                                <path d="M548.085,574.003C548.085,567.55 543.305,562.311 537.417,562.311L328.721,562.311C322.834,562.311 318.054,567.55 318.054,574.003C318.054,580.457 322.834,585.696 328.721,585.696L537.417,585.696C543.305,585.696 548.085,580.457 548.085,574.003Z" style="fill:white;"/>
                            </g>
                        </g>
                        <g id="Blue-Cap6" serif:id="Blue Cap" transform="matrix(0.350519,0,0,0.350519,1197.97,665.55)">
                            <g transform="matrix(1,0,0,1,1650,0)">
                                <path d="M573.546,590.424C573.546,566.14 553.764,546.424 529.398,546.424L334.767,546.424C310.401,546.424 290.619,566.14 290.619,590.424C290.619,614.708 310.401,634.424 334.767,634.424L529.398,634.424C553.764,634.424 573.546,614.708 573.546,590.424Z" style="fill:rgb(16,106,168);"/>
                            </g>
                            <g transform="matrix(0.904361,-2.17431e-17,-2.60622e-17,0.822284,1692.69,105.999)">
                                <path d="M548.085,574.003C548.085,567.55 543.305,562.311 537.417,562.311L328.721,562.311C322.834,562.311 318.054,567.55 318.054,574.003C318.054,580.457 322.834,585.696 328.721,585.696L537.417,585.696C543.305,585.696 548.085,580.457 548.085,574.003Z" style="fill:white;"/>
                            </g>
                        </g>
                    </g>
                    <g transform="matrix(1,0,0,1,53.8965,-1.39755)">
                        <g id="Blue-Cap7" serif:id="Blue Cap" transform="matrix(0.59592,0,0,0.797235,6011.02,1308.86)">
                            <g transform="matrix(1,0,0,1,1650,0)">
                                <path d="M573.546,590.424C573.546,566.14 553.764,546.424 529.398,546.424L334.767,546.424C310.401,546.424 290.619,566.14 290.619,590.424C290.619,614.708 310.401,634.424 334.767,634.424L529.398,634.424C553.764,634.424 573.546,614.708 573.546,590.424Z" style="fill:rgb(16,106,168);"/>
                            </g>
                            <g transform="matrix(0.904361,-2.17431e-17,-2.60622e-17,0.822284,1692.69,105.999)">
                                <path d="M548.085,574.003C548.085,567.55 543.305,562.311 537.417,562.311L328.721,562.311C322.834,562.311 318.054,567.55 318.054,574.003C318.054,580.457 322.834,585.696 328.721,585.696L537.417,585.696C543.305,585.696 548.085,580.457 548.085,574.003Z" style="fill:white;"/>
                            </g>
                        </g>
                        <g id="Blue-Cap8" serif:id="Blue Cap" transform="matrix(0.59592,0,0,0.797235,6011.02,1408.93)">
                            <g transform="matrix(1,0,0,1,1650,0)">
                                <path d="M573.546,590.424C573.546,566.14 553.764,546.424 529.398,546.424L334.767,546.424C310.401,546.424 290.619,566.14 290.619,590.424C290.619,614.708 310.401,634.424 334.767,634.424L529.398,634.424C553.764,634.424 573.546,614.708 573.546,590.424Z" style="fill:rgb(16,106,168);"/>
                            </g>
                            <g transform="matrix(0.904361,-2.17431e-17,-2.60622e-17,0.822284,1692.69,105.999)">
                                <path d="M548.085,574.003C548.085,567.55 543.305,562.311 537.417,562.311L328.721,562.311C322.834,562.311 318.054,567.55 318.054,574.003C318.054,580.457 322.834,585.696 328.721,585.696L537.417,585.696C543.305,585.696 548.085,580.457 548.085,574.003Z" style="fill:white;"/>
                            </g>
                        </g>
                        <g id="Blue-Cap9" serif:id="Blue Cap" transform="matrix(0.59592,0,0,0.797235,6011.02,1509)">
                            <g transform="matrix(1,0,0,1,1650,0)">
                                <path d="M573.546,590.424C573.546,566.14 553.764,546.424 529.398,546.424L334.767,546.424C310.401,546.424 290.619,566.14 290.619,590.424C290.619,614.708 310.401,634.424 334.767,634.424L529.398,634.424C553.764,634.424 573.546,614.708 573.546,590.424Z" style="fill:rgb(16,106,168);"/>
                            </g>
                            <g transform="matrix(0.904361,-2.17431e-17,-2.60622e-17,0.822284,1692.69,105.999)">
                                <path d="M548.085,574.003C548.085,567.55 543.305,562.311 537.417,562.311L328.721,562.311C322.834,562.311 318.054,567.55 318.054,574.003C318.054,580.457 322.834,585.696 328.721,585.696L537.417,585.696C543.305,585.696 548.085,580.457 548.085,574.003Z" style="fill:white;"/>
                            </g>
                        </g>
                    </g>
                    <g id="Power-Cap" serif:id="Power Cap" transform="matrix(1.70011,0,0,2.27444,929.844,19.1486)">
                        <g transform="matrix(1,0,0,1,1650,0)">
                            <circle cx="1354.77" cy="795.496" r="48.128" style="fill:rgb(140,140,140);"/>
                        </g>
                        <g transform="matrix(1,0,0,1,1650,0)">
                            <path d="M1354.77,731.919C1319.68,731.919 1291.19,760.407 1291.19,795.496C1291.19,830.585 1319.68,859.073 1354.77,859.073C1389.86,859.073 1418.34,830.585 1418.34,795.496C1418.34,760.407 1389.86,731.919 1354.77,731.919ZM1354.77,762.817C1372.8,762.817 1387.45,777.46 1387.45,795.496C1387.45,813.532 1372.8,828.175 1354.77,828.175C1336.73,828.175 1322.09,813.532 1322.09,795.496C1322.09,777.46 1336.73,762.817 1354.77,762.817Z" style="fill:rgb(177,212,252);"/>
                            <clipPath id="_clip12">
                                <path d="M1354.77,731.919C1319.68,731.919 1291.19,760.407 1291.19,795.496C1291.19,830.585 1319.68,859.073 1354.77,859.073C1389.86,859.073 1418.34,830.585 1418.34,795.496C1418.34,760.407 1389.86,731.919 1354.77,731.919ZM1354.77,762.817C1372.8,762.817 1387.45,777.46 1387.45,795.496C1387.45,813.532 1372.8,828.175 1354.77,828.175C1336.73,828.175 1322.09,813.532 1322.09,795.496C1322.09,777.46 1336.73,762.817 1354.77,762.817Z"/>
                            </clipPath>
                            <g clip-path="url(#_clip12)">
                                <path d="M1382.9,809.564L1443.48,855.597L1306.64,889.583L1340,816.36L1382.9,809.564Z" style="fill:rgb(57,52,62);"/>
                            </g>
                        </g>
                    </g>
                    <g id="Small-Cap" serif:id="Small Cap" transform="matrix(0.864316,0,0,1.1563,3657.61,488.243)">
                        <g transform="matrix(1,0,0,1,1650,0)">
                            <circle cx="1354.77" cy="795.496" r="48.128" style="fill:rgb(140,140,140);"/>
                        </g>
                        <g transform="matrix(1,2.77556e-16,-2.77556e-16,1,1650,2.27374e-13)">
                            <path d="M1354.77,731.919C1319.68,731.919 1291.19,760.407 1291.19,795.496C1291.19,830.585 1319.68,859.073 1354.77,859.073C1389.86,859.073 1418.34,830.585 1418.34,795.496C1418.34,760.407 1389.86,731.919 1354.77,731.919ZM1354.77,762.817C1372.8,762.817 1387.45,777.46 1387.45,795.496C1387.45,813.532 1372.8,828.175 1354.77,828.175C1336.73,828.175 1322.09,813.532 1322.09,795.496C1322.09,777.46 1336.73,762.817 1354.77,762.817Z" style="fill:rgb(39,17,71);"/>
                            <clipPath id="_clip13">
                                <path d="M1354.77,731.919C1319.68,731.919 1291.19,760.407 1291.19,795.496C1291.19,830.585 1319.68,859.073 1354.77,859.073C1389.86,859.073 1418.34,830.585 1418.34,795.496C1418.34,760.407 1389.86,731.919 1354.77,731.919ZM1354.77,762.817C1372.8,762.817 1387.45,777.46 1387.45,795.496C1387.45,813.532 1372.8,828.175 1354.77,828.175C1336.73,828.175 1322.09,813.532 1322.09,795.496C1322.09,777.46 1336.73,762.817 1354.77,762.817Z"/>
                            </clipPath>
                            <g clip-path="url(#_clip13)">
                                <path d="M1382.9,809.564L1443.48,855.597L1306.64,889.583L1340,816.36L1382.9,809.564Z" style="fill:white;"/>
                            </g>
                        </g>
                    </g>
                    <g id="Small-Cap1" serif:id="Small Cap" transform="matrix(0.864316,0,0,1.1563,4919.01,963.181)">
                        <g transform="matrix(1,0,0,1,1650,0)">
                            <circle cx="1354.77" cy="795.496" r="48.128" style="fill:rgb(140,140,140);"/>
                        </g>
                        <g transform="matrix(1,2.77556e-16,-2.77556e-16,1,1650,2.27374e-13)">
                            <path d="M1354.77,731.919C1319.68,731.919 1291.19,760.407 1291.19,795.496C1291.19,830.585 1319.68,859.073 1354.77,859.073C1389.86,859.073 1418.34,830.585 1418.34,795.496C1418.34,760.407 1389.86,731.919 1354.77,731.919ZM1354.77,762.817C1372.8,762.817 1387.45,777.46 1387.45,795.496C1387.45,813.532 1372.8,828.175 1354.77,828.175C1336.73,828.175 1322.09,813.532 1322.09,795.496C1322.09,777.46 1336.73,762.817 1354.77,762.817Z" style="fill:rgb(39,17,71);"/>
                            <clipPath id="_clip14">
                                <path d="M1354.77,731.919C1319.68,731.919 1291.19,760.407 1291.19,795.496C1291.19,830.585 1319.68,859.073 1354.77,859.073C1389.86,859.073 1418.34,830.585 1418.34,795.496C1418.34,760.407 1389.86,731.919 1354.77,731.919ZM1354.77,762.817C1372.8,762.817 1387.45,777.46 1387.45,795.496C1387.45,813.532 1372.8,828.175 1354.77,828.175C1336.73,828.175 1322.09,813.532 1322.09,795.496C1322.09,777.46 1336.73,762.817 1354.77,762.817Z"/>
                            </clipPath>
                            <g clip-path="url(#_clip14)">
                                <path d="M1382.9,809.564L1443.48,855.597L1306.64,889.583L1340,816.36L1382.9,809.564Z" style="fill:white;"/>
                            </g>
                        </g>
                    </g>
                    <g id="Small-Cap2" serif:id="Small Cap" transform="matrix(0.864316,0,0,1.1563,3657.61,704.293)">
                        <g transform="matrix(1,0,0,1,1650,0)">
                            <circle cx="1354.77" cy="795.496" r="48.128" style="fill:rgb(140,140,140);"/>
                        </g>
                        <g transform="matrix(1,2.77556e-16,-2.77556e-16,1,1650,2.27374e-13)">
                            <path d="M1354.77,731.919C1319.68,731.919 1291.19,760.407 1291.19,795.496C1291.19,830.585 1319.68,859.073 1354.77,859.073C1389.86,859.073 1418.34,830.585 1418.34,795.496C1418.34,760.407 1389.86,731.919 1354.77,731.919ZM1354.77,762.817C1372.8,762.817 1387.45,777.46 1387.45,795.496C1387.45,813.532 1372.8,828.175 1354.77,828.175C1336.73,828.175 1322.09,813.532 1322.09,795.496C1322.09,777.46 1336.73,762.817 1354.77,762.817Z" style="fill:rgb(39,17,71);"/>
                            <clipPath id="_clip15">
                                <path d="M1354.77,731.919C1319.68,731.919 1291.19,760.407 1291.19,795.496C1291.19,830.585 1319.68,859.073 1354.77,859.073C1389.86,859.073 1418.34,830.585 1418.34,795.496C1418.34,760.407 1389.86,731.919 1354.77,731.919ZM1354.77,762.817C1372.8,762.817 1387.45,777.46 1387.45,795.496C1387.45,813.532 1372.8,828.175 1354.77,828.175C1336.73,828.175 1322.09,813.532 1322.09,795.496C1322.09,777.46 1336.73,762.817 1354.77,762.817Z"/>
                            </clipPath>
                            <g clip-path="url(#_clip15)">
                                <path d="M1382.9,809.564L1443.48,855.597L1306.64,889.583L1340,816.36L1382.9,809.564Z" style="fill:white;"/>
                            </g>
                        </g>
                    </g>
                    <g id="Small-Cap3" serif:id="Small Cap" transform="matrix(0.864316,0,0,1.1563,3657.61,920.343)">
                        <g transform="matrix(1,0,0,1,1650,0)">
                            <circle cx="1354.77" cy="795.496" r="48.128" style="fill:rgb(140,140,140);"/>
                        </g>
                        <g transform="matrix(1,2.77556e-16,-2.77556e-16,1,1650,2.27374e-13)">
                            <path d="M1354.77,731.919C1319.68,731.919 1291.19,760.407 1291.19,795.496C1291.19,830.585 1319.68,859.073 1354.77,859.073C1389.86,859.073 1418.34,830.585 1418.34,795.496C1418.34,760.407 1389.86,731.919 1354.77,731.919ZM1354.77,762.817C1372.8,762.817 1387.45,777.46 1387.45,795.496C1387.45,813.532 1372.8,828.175 1354.77,828.175C1336.73,828.175 1322.09,813.532 1322.09,795.496C1322.09,777.46 1336.73,762.817 1354.77,762.817Z" style="fill:rgb(39,17,71);"/>
                            <clipPath id="_clip16">
                                <path d="M1354.77,731.919C1319.68,731.919 1291.19,760.407 1291.19,795.496C1291.19,830.585 1319.68,859.073 1354.77,859.073C1389.86,859.073 1418.34,830.585 1418.34,795.496C1418.34,760.407 1389.86,731.919 1354.77,731.919ZM1354.77,762.817C1372.8,762.817 1387.45,777.46 1387.45,795.496C1387.45,813.532 1372.8,828.175 1354.77,828.175C1336.73,828.175 1322.09,813.532 1322.09,795.496C1322.09,777.46 1336.73,762.817 1354.77,762.817Z"/>
                            </clipPath>
                            <g clip-path="url(#_clip16)">
                                <path d="M1382.9,809.564L1443.48,855.597L1306.64,889.583L1340,816.36L1382.9,809.564Z" style="fill:white;"/>
                            </g>
                        </g>
                    </g>
                    <g id="Tiny-Chip" serif:id="Tiny Chip" transform="matrix(1.70011,0,0,2.27444,1148.22,-389.748)">
                        <g transform="matrix(0.588198,0,0,0.586224,2656.17,-6415.63)">
                            <path d="M526.312,11628.2C526.312,11639.5 532.041,11648.7 539.099,11648.7L548.69,11648.7C555.748,11648.7 561.478,11639.5 561.478,11628.2L561.478,11589.4C561.478,11578.1 555.748,11568.9 548.69,11568.9L539.099,11568.9C532.041,11568.9 526.312,11578.1 526.312,11589.4L526.312,11628.2ZM579.066,11628.2C579.066,11639.5 584.796,11648.7 591.853,11648.7L601.445,11648.7C608.502,11648.7 614.232,11639.5 614.232,11628.2L614.232,11589.4C614.232,11578.1 608.502,11568.9 601.445,11568.9L591.853,11568.9C584.796,11568.9 579.066,11578.1 579.066,11589.4L579.066,11628.2ZM633.694,11628.2C633.694,11639.5 639.423,11648.7 646.481,11648.7L656.072,11648.7C663.13,11648.7 668.86,11639.5 668.86,11628.2L668.86,11589.4C668.86,11578.1 663.13,11568.9 656.072,11568.9L646.481,11568.9C639.423,11568.9 633.694,11578.1 633.694,11589.4L633.694,11628.2Z" style="fill:rgb(185,185,185);"/>
                        </g>
                        <g transform="matrix(0.588198,0,0,0.586224,2656.17,-6415.63)">
                            <path d="M524.217,11780.5C524.217,11791.9 529.947,11801.1 537.004,11801.1L546.596,11801.1C553.653,11801.1 559.383,11791.9 559.383,11780.5L559.383,11741.8C559.383,11730.5 553.653,11721.3 546.596,11721.3L537.004,11721.3C529.947,11721.3 524.217,11730.5 524.217,11741.8L524.217,11780.5ZM576.971,11780.5C576.971,11791.9 582.701,11801.1 589.758,11801.1L599.35,11801.1C606.407,11801.1 612.137,11791.9 612.137,11780.5L612.137,11741.8C612.137,11730.5 606.407,11721.3 599.35,11721.3L589.758,11721.3C582.701,11721.3 576.971,11730.5 576.971,11741.8L576.971,11780.5ZM631.599,11780.5C631.599,11791.9 637.329,11801.1 644.386,11801.1L653.978,11801.1C661.035,11801.1 666.765,11791.9 666.765,11780.5L666.765,11741.8C666.765,11730.5 661.035,11721.3 653.978,11721.3L644.386,11721.3C637.329,11721.3 631.599,11730.5 631.599,11741.8L631.599,11780.5Z" style="fill:rgb(140,147,152);"/>
                        </g>
                        <g transform="matrix(2.2058e-17,0.360235,-0.464599,2.84485e-17,3335.45,146.68)">
                            <path d="M930.194,592.051C930.194,581.005 918.667,572.038 904.469,572.038L692.153,572.038C677.956,572.038 666.429,581.005 666.429,592.051L666.429,820.6C666.429,831.645 677.956,840.613 692.153,840.613L904.469,840.613C918.667,840.613 930.194,831.645 930.194,820.6L930.194,592.051Z" style="fill:rgb(113,99,98);"/>
                            <clipPath id="_clip17">
                                <path d="M930.194,592.051C930.194,581.005 918.667,572.038 904.469,572.038L692.153,572.038C677.956,572.038 666.429,581.005 666.429,592.051L666.429,820.6C666.429,831.645 677.956,840.613 692.153,840.613L904.469,840.613C918.667,840.613 930.194,831.645 930.194,820.6L930.194,592.051Z"/>
                            </clipPath>
                            <g clip-path="url(#_clip17)">
                                <g transform="matrix(2.26017,7.39557e-32,0,1.75247,-1170.1,-752.96)">
                                    <path d="M914.482,754.526C923.353,754.527 930.555,761.728 930.555,770.599L930.555,893.885C930.555,902.755 923.352,909.958 914.482,909.958L890.202,909.958C898.963,909.958 906.077,902.844 906.077,894.083L906.077,770.401C906.077,761.639 898.963,754.526 890.202,754.526L914.482,754.526Z" style="fill-opacity:0.21;"/>
                                </g>
                            </g>
                        </g>
                    </g>
                    <g id="Tiny-Chip1" serif:id="Tiny Chip" transform="matrix(1.70011,0,0,2.27444,1148.22,50.9174)">
                        <g transform="matrix(0.588198,0,0,0.586224,2656.17,-6415.63)">
                            <path d="M526.312,11628.2C526.312,11639.5 532.041,11648.7 539.099,11648.7L548.69,11648.7C555.748,11648.7 561.478,11639.5 561.478,11628.2L561.478,11589.4C561.478,11578.1 555.748,11568.9 548.69,11568.9L539.099,11568.9C532.041,11568.9 526.312,11578.1 526.312,11589.4L526.312,11628.2ZM579.066,11628.2C579.066,11639.5 584.796,11648.7 591.853,11648.7L601.445,11648.7C608.502,11648.7 614.232,11639.5 614.232,11628.2L614.232,11589.4C614.232,11578.1 608.502,11568.9 601.445,11568.9L591.853,11568.9C584.796,11568.9 579.066,11578.1 579.066,11589.4L579.066,11628.2ZM633.694,11628.2C633.694,11639.5 639.423,11648.7 646.481,11648.7L656.072,11648.7C663.13,11648.7 668.86,11639.5 668.86,11628.2L668.86,11589.4C668.86,11578.1 663.13,11568.9 656.072,11568.9L646.481,11568.9C639.423,11568.9 633.694,11578.1 633.694,11589.4L633.694,11628.2Z" style="fill:rgb(185,185,185);"/>
                        </g>
                        <g transform="matrix(0.588198,0,0,0.586224,2656.17,-6415.63)">
                            <path d="M524.217,11780.5C524.217,11791.9 529.947,11801.1 537.004,11801.1L546.596,11801.1C553.653,11801.1 559.383,11791.9 559.383,11780.5L559.383,11741.8C559.383,11730.5 553.653,11721.3 546.596,11721.3L537.004,11721.3C529.947,11721.3 524.217,11730.5 524.217,11741.8L524.217,11780.5ZM576.971,11780.5C576.971,11791.9 582.701,11801.1 589.758,11801.1L599.35,11801.1C606.407,11801.1 612.137,11791.9 612.137,11780.5L612.137,11741.8C612.137,11730.5 606.407,11721.3 599.35,11721.3L589.758,11721.3C582.701,11721.3 576.971,11730.5 576.971,11741.8L576.971,11780.5ZM631.599,11780.5C631.599,11791.9 637.329,11801.1 644.386,11801.1L653.978,11801.1C661.035,11801.1 666.765,11791.9 666.765,11780.5L666.765,11741.8C666.765,11730.5 661.035,11721.3 653.978,11721.3L644.386,11721.3C637.329,11721.3 631.599,11730.5 631.599,11741.8L631.599,11780.5Z" style="fill:rgb(140,147,152);"/>
                        </g>
                        <g transform="matrix(2.2058e-17,0.360235,-0.464599,2.84485e-17,3335.45,146.68)">
                            <path d="M930.194,592.051C930.194,581.005 918.667,572.038 904.469,572.038L692.153,572.038C677.956,572.038 666.429,581.005 666.429,592.051L666.429,820.6C666.429,831.645 677.956,840.613 692.153,840.613L904.469,840.613C918.667,840.613 930.194,831.645 930.194,820.6L930.194,592.051Z" style="fill:rgb(113,99,98);"/>
                            <clipPath id="_clip18">
                                <path d="M930.194,592.051C930.194,581.005 918.667,572.038 904.469,572.038L692.153,572.038C677.956,572.038 666.429,581.005 666.429,592.051L666.429,820.6C666.429,831.645 677.956,840.613 692.153,840.613L904.469,840.613C918.667,840.613 930.194,831.645 930.194,820.6L930.194,592.051Z"/>
                            </clipPath>
                            <g clip-path="url(#_clip18)">
                                <g transform="matrix(2.26017,7.39557e-32,0,1.75247,-1170.1,-752.96)">
                                    <path d="M914.482,754.526C923.353,754.527 930.555,761.728 930.555,770.599L930.555,893.885C930.555,902.755 923.352,909.958 914.482,909.958L890.202,909.958C898.963,909.958 906.077,902.844 906.077,894.083L906.077,770.401C906.077,761.639 898.963,754.526 890.202,754.526L914.482,754.526Z" style="fill-opacity:0.21;"/>
                                </g>
                            </g>
                        </g>
                    </g>
                    <g transform="matrix(1.05765,0,0,0.87717,5718.19,1250.19)">
                        <g id="Crystal">
                            <path id="Crystal1" serif:id="Crystal" d="M930.194,609.105C930.194,588.647 919.862,572.038 907.137,572.038L689.486,572.038C676.76,572.038 666.429,588.647 666.429,609.105L666.429,803.546C666.429,824.004 676.76,840.613 689.486,840.613L907.137,840.613C919.862,840.613 930.194,824.004 930.194,803.546L930.194,609.105Z" style="fill:rgb(140,140,140);"/>
                            <clipPath id="_clip19">
                                <path id="Crystal2" serif:id="Crystal" d="M930.194,609.105C930.194,588.647 919.862,572.038 907.137,572.038L689.486,572.038C676.76,572.038 666.429,588.647 666.429,609.105L666.429,803.546C666.429,824.004 676.76,840.613 689.486,840.613L907.137,840.613C919.862,840.613 930.194,824.004 930.194,803.546L930.194,609.105Z"/>
                            </clipPath>
                            <g clip-path="url(#_clip19)">
                                <g transform="matrix(1.36867,0,0,2.20777,-294.042,-776.645)">
                                    <g transform="matrix(1,0,0,1,0,-0.328383)">
                                        <path d="M872.735,622.813C878.328,622.813 882.868,627.354 882.868,632.946C882.868,632.946 882.868,653.631 882.868,662.007C882.868,664.223 881.986,666.349 880.417,667.918C871.418,676.917 840.265,708.07 831.512,716.823C830.037,718.298 828.034,719.127 825.944,719.127C808.184,719.127 723.97,719.127 723.97,719.127C718.378,719.127 713.837,714.587 713.837,708.994L713.837,632.946C713.837,627.354 718.377,622.813 723.97,622.813L872.735,622.813Z" style="fill:rgb(191,191,191);"/>
                                    </g>
                                    <path d="M855.612,622.484L872.735,622.484C878.328,622.485 882.868,627.025 882.868,632.617C882.868,632.617 882.868,640.052 882.868,660.997C882.868,664.223 881.586,667.316 879.306,669.597C869.479,679.423 842.087,706.815 832.54,716.362C830.407,718.496 827.513,719.695 824.495,719.695C804.039,719.695 723.97,719.695 723.97,719.695C718.378,719.695 713.837,715.154 713.837,709.562L713.837,701.962L802.873,701.962C805.891,701.962 808.785,700.763 810.919,698.629C819.64,689.909 843.077,666.472 852.05,657.499C854.331,655.218 855.612,652.124 855.612,648.899L855.612,622.484Z" style="fill:rgb(153,153,153);"/>
                                </g>
                            </g>
                        </g>
                    </g>
                    <g transform="matrix(1,0,0,1,19.3136,-1367.05)">
                        <g transform="matrix(1,0,0,1.33333,5664,-14981.7)">
                            <path d="M2356.47,12621.5C2356.47,12632.8 2362.2,12642 2369.26,12642L2378.85,12642C2385.91,12642 2391.64,12632.8 2391.64,12621.5L2391.64,12582.7C2391.64,12571.4 2385.91,12562.2 2378.85,12562.2L2369.26,12562.2C2362.2,12562.2 2356.47,12571.4 2356.47,12582.7L2356.47,12621.5ZM2409.23,12621.5C2409.23,12632.8 2414.96,12642 2422.01,12642L2431.61,12642C2438.66,12642 2444.39,12632.8 2444.39,12621.5L2444.39,12582.7C2444.39,12571.4 2438.66,12562.2 2431.61,12562.2L2422.01,12562.2C2414.96,12562.2 2409.23,12571.4 2409.23,12582.7L2409.23,12621.5ZM2463.86,12621.5C2463.86,12632.8 2469.59,12642 2476.64,12642L2486.23,12642C2493.29,12642 2499.02,12632.8 2499.02,12621.5L2499.02,12582.7C2499.02,12571.4 2493.29,12562.2 2486.23,12562.2L2476.64,12562.2C2469.59,12562.2 2463.86,12571.4 2463.86,12582.7L2463.86,12621.5ZM2517.55,12621.5C2517.55,12632.8 2523.28,12642 2530.33,12642L2539.93,12642C2546.98,12642 2552.71,12632.8 2552.71,12621.5L2552.71,12582.7C2552.71,12571.4 2546.98,12562.2 2539.93,12562.2L2530.33,12562.2C2523.28,12562.2 2517.55,12571.4 2517.55,12582.7L2517.55,12621.5ZM2570.3,12621.5C2570.3,12632.8 2576.03,12642 2583.09,12642L2592.68,12642C2599.74,12642 2605.47,12632.8 2605.47,12621.5L2605.47,12582.7C2605.47,12571.4 2599.74,12562.2 2592.68,12562.2L2583.09,12562.2C2576.03,12562.2 2570.3,12571.4 2570.3,12582.7L2570.3,12621.5ZM2034.97,12618.1C2034.97,12629.4 2040.69,12638.6 2047.75,12638.6L2057.34,12638.6C2064.4,12638.6 2070.13,12629.4 2070.13,12618.1L2070.13,12579.3C2070.13,12568 2064.4,12558.8 2057.34,12558.8L2047.75,12558.8C2040.69,12558.8 2034.97,12568 2034.97,12579.3L2034.97,12618.1ZM2087.72,12618.1C2087.72,12629.4 2093.45,12638.6 2100.51,12638.6L2110.1,12638.6C2117.16,12638.6 2122.89,12629.4 2122.89,12618.1L2122.89,12579.3C2122.89,12568 2117.16,12558.8 2110.1,12558.8L2100.51,12558.8C2093.45,12558.8 2087.72,12568 2087.72,12579.3L2087.72,12618.1ZM2142.35,12618.1C2142.35,12629.4 2148.08,12638.6 2155.13,12638.6L2164.73,12638.6C2171.78,12638.6 2177.51,12629.4 2177.51,12618.1L2177.51,12579.3C2177.51,12568 2171.78,12558.8 2164.73,12558.8L2155.13,12558.8C2148.08,12558.8 2142.35,12568 2142.35,12579.3L2142.35,12618.1ZM2196.04,12618.1C2196.04,12629.4 2201.77,12638.6 2208.83,12638.6L2218.42,12638.6C2225.47,12638.6 2231.2,12629.4 2231.2,12618.1L2231.2,12579.3C2231.2,12568 2225.47,12558.8 2218.42,12558.8L2208.83,12558.8C2201.77,12558.8 2196.04,12568 2196.04,12579.3L2196.04,12618.1ZM2248.79,12618.1C2248.79,12629.4 2254.52,12638.6 2261.58,12638.6L2271.17,12638.6C2278.23,12638.6 2283.96,12629.4 2283.96,12618.1L2283.96,12579.3C2283.96,12568 2278.23,12558.8 2271.17,12558.8L2261.58,12558.8C2254.52,12558.8 2248.79,12568 2248.79,12579.3L2248.79,12618.1ZM2303.42,12618.1C2303.42,12629.4 2309.15,12638.6 2316.21,12638.6L2325.8,12638.6C2332.86,12638.6 2338.59,12629.4 2338.59,12618.1L2338.59,12579.3C2338.59,12568 2332.86,12558.8 2325.8,12558.8L2316.21,12558.8C2309.15,12558.8 2303.42,12568 2303.42,12579.3L2303.42,12618.1Z" style="fill:rgb(140,147,152);"/>
                        </g>
                        <g transform="matrix(1,0,0,1.33333,5664,-15233.4)">
                            <path d="M2356.47,12621.5C2356.47,12632.8 2362.2,12642 2369.26,12642L2378.85,12642C2385.91,12642 2391.64,12632.8 2391.64,12621.5L2391.64,12582.7C2391.64,12571.4 2385.91,12562.2 2378.85,12562.2L2369.26,12562.2C2362.2,12562.2 2356.47,12571.4 2356.47,12582.7L2356.47,12621.5ZM2409.23,12621.5C2409.23,12632.8 2414.96,12642 2422.01,12642L2431.61,12642C2438.66,12642 2444.39,12632.8 2444.39,12621.5L2444.39,12582.7C2444.39,12571.4 2438.66,12562.2 2431.61,12562.2L2422.01,12562.2C2414.96,12562.2 2409.23,12571.4 2409.23,12582.7L2409.23,12621.5ZM2463.86,12621.5C2463.86,12632.8 2469.59,12642 2476.64,12642L2486.23,12642C2493.29,12642 2499.02,12632.8 2499.02,12621.5L2499.02,12582.7C2499.02,12571.4 2493.29,12562.2 2486.23,12562.2L2476.64,12562.2C2469.59,12562.2 2463.86,12571.4 2463.86,12582.7L2463.86,12621.5ZM2517.55,12621.5C2517.55,12632.8 2523.28,12642 2530.33,12642L2539.93,12642C2546.98,12642 2552.71,12632.8 2552.71,12621.5L2552.71,12582.7C2552.71,12571.4 2546.98,12562.2 2539.93,12562.2L2530.33,12562.2C2523.28,12562.2 2517.55,12571.4 2517.55,12582.7L2517.55,12621.5ZM2570.3,12621.5C2570.3,12632.8 2576.03,12642 2583.09,12642L2592.68,12642C2599.74,12642 2605.47,12632.8 2605.47,12621.5L2605.47,12582.7C2605.47,12571.4 2599.74,12562.2 2592.68,12562.2L2583.09,12562.2C2576.03,12562.2 2570.3,12571.4 2570.3,12582.7L2570.3,12621.5ZM2034.97,12618.1C2034.97,12629.4 2040.69,12638.6 2047.75,12638.6L2057.34,12638.6C2064.4,12638.6 2070.13,12629.4 2070.13,12618.1L2070.13,12579.3C2070.13,12568 2064.4,12558.8 2057.34,12558.8L2047.75,12558.8C2040.69,12558.8 2034.97,12568 2034.97,12579.3L2034.97,12618.1ZM2087.72,12618.1C2087.72,12629.4 2093.45,12638.6 2100.51,12638.6L2110.1,12638.6C2117.16,12638.6 2122.89,12629.4 2122.89,12618.1L2122.89,12579.3C2122.89,12568 2117.16,12558.8 2110.1,12558.8L2100.51,12558.8C2093.45,12558.8 2087.72,12568 2087.72,12579.3L2087.72,12618.1ZM2142.35,12618.1C2142.35,12629.4 2148.08,12638.6 2155.13,12638.6L2164.73,12638.6C2171.78,12638.6 2177.51,12629.4 2177.51,12618.1L2177.51,12579.3C2177.51,12568 2171.78,12558.8 2164.73,12558.8L2155.13,12558.8C2148.08,12558.8 2142.35,12568 2142.35,12579.3L2142.35,12618.1ZM2196.04,12618.1C2196.04,12629.4 2201.77,12638.6 2208.83,12638.6L2218.42,12638.6C2225.47,12638.6 2231.2,12629.4 2231.2,12618.1L2231.2,12579.3C2231.2,12568 2225.47,12558.8 2218.42,12558.8L2208.83,12558.8C2201.77,12558.8 2196.04,12568 2196.04,12579.3L2196.04,12618.1ZM2248.79,12618.1C2248.79,12629.4 2254.52,12638.6 2261.58,12638.6L2271.17,12638.6C2278.23,12638.6 2283.96,12629.4 2283.96,12618.1L2283.96,12579.3C2283.96,12568 2278.23,12558.8 2271.17,12558.8L2261.58,12558.8C2254.52,12558.8 2248.79,12568 2248.79,12579.3L2248.79,12618.1ZM2303.42,12618.1C2303.42,12629.4 2309.15,12638.6 2316.21,12638.6L2325.8,12638.6C2332.86,12638.6 2338.59,12629.4 2338.59,12618.1L2338.59,12579.3C2338.59,12568 2332.86,12558.8 2325.8,12558.8L2316.21,12558.8C2309.15,12558.8 2303.42,12568 2303.42,12579.3L2303.42,12618.1Z" style="fill:rgb(185,185,185);"/>
                        </g>
                        <g transform="matrix(4.62416e-17,1.0103,-2.31027,1.89253e-16,9620.04,885.452)">
                            <path d="M930.194,577.255C930.194,574.376 923.066,572.038 914.287,572.038L682.336,572.038C673.557,572.038 666.429,574.376 666.429,577.255L666.429,835.396C666.429,838.275 673.557,840.613 682.336,840.613L914.287,840.613C923.066,840.613 930.194,838.275 930.194,835.396L930.194,577.255Z" style="fill:rgb(113,99,98);"/>
                            <clipPath id="_clip20">
                                <path d="M930.194,577.255C930.194,574.376 923.066,572.038 914.287,572.038L682.336,572.038C673.557,572.038 666.429,574.376 666.429,577.255L666.429,835.396C666.429,838.275 673.557,840.613 682.336,840.613L914.287,840.613C923.066,840.613 930.194,838.275 930.194,835.396L930.194,577.255Z"/>
                            </clipPath>
                            <g clip-path="url(#_clip20)">
                                <g transform="matrix(1.83296,1.90037e-32,2.46519e-32,0.59916,-766.821,296.514)">
                                    <path d="M914.482,458.527C923.353,458.527 930.555,465.729 930.555,474.6L930.555,893.885C930.555,902.755 923.352,909.958 914.482,909.958L890.202,909.958C898.963,909.958 906.077,902.844 906.077,894.083L906.077,474.402C906.077,465.64 898.963,458.527 890.202,458.527L914.482,458.527Z" style="fill-opacity:0.21;"/>
                                </g>
                            </g>
                        </g>
                    </g>
                    <g transform="matrix(1,0,0,1,19.3136,-893.996)">
                        <g transform="matrix(1,0,0,1.33333,5664,-14981.7)">
                            <path d="M2356.47,12621.5C2356.47,12632.8 2362.2,12642 2369.26,12642L2378.85,12642C2385.91,12642 2391.64,12632.8 2391.64,12621.5L2391.64,12582.7C2391.64,12571.4 2385.91,12562.2 2378.85,12562.2L2369.26,12562.2C2362.2,12562.2 2356.47,12571.4 2356.47,12582.7L2356.47,12621.5ZM2409.23,12621.5C2409.23,12632.8 2414.96,12642 2422.01,12642L2431.61,12642C2438.66,12642 2444.39,12632.8 2444.39,12621.5L2444.39,12582.7C2444.39,12571.4 2438.66,12562.2 2431.61,12562.2L2422.01,12562.2C2414.96,12562.2 2409.23,12571.4 2409.23,12582.7L2409.23,12621.5ZM2463.86,12621.5C2463.86,12632.8 2469.59,12642 2476.64,12642L2486.23,12642C2493.29,12642 2499.02,12632.8 2499.02,12621.5L2499.02,12582.7C2499.02,12571.4 2493.29,12562.2 2486.23,12562.2L2476.64,12562.2C2469.59,12562.2 2463.86,12571.4 2463.86,12582.7L2463.86,12621.5ZM2517.55,12621.5C2517.55,12632.8 2523.28,12642 2530.33,12642L2539.93,12642C2546.98,12642 2552.71,12632.8 2552.71,12621.5L2552.71,12582.7C2552.71,12571.4 2546.98,12562.2 2539.93,12562.2L2530.33,12562.2C2523.28,12562.2 2517.55,12571.4 2517.55,12582.7L2517.55,12621.5ZM2570.3,12621.5C2570.3,12632.8 2576.03,12642 2583.09,12642L2592.68,12642C2599.74,12642 2605.47,12632.8 2605.47,12621.5L2605.47,12582.7C2605.47,12571.4 2599.74,12562.2 2592.68,12562.2L2583.09,12562.2C2576.03,12562.2 2570.3,12571.4 2570.3,12582.7L2570.3,12621.5ZM2034.97,12618.1C2034.97,12629.4 2040.69,12638.6 2047.75,12638.6L2057.34,12638.6C2064.4,12638.6 2070.13,12629.4 2070.13,12618.1L2070.13,12579.3C2070.13,12568 2064.4,12558.8 2057.34,12558.8L2047.75,12558.8C2040.69,12558.8 2034.97,12568 2034.97,12579.3L2034.97,12618.1ZM2087.72,12618.1C2087.72,12629.4 2093.45,12638.6 2100.51,12638.6L2110.1,12638.6C2117.16,12638.6 2122.89,12629.4 2122.89,12618.1L2122.89,12579.3C2122.89,12568 2117.16,12558.8 2110.1,12558.8L2100.51,12558.8C2093.45,12558.8 2087.72,12568 2087.72,12579.3L2087.72,12618.1ZM2142.35,12618.1C2142.35,12629.4 2148.08,12638.6 2155.13,12638.6L2164.73,12638.6C2171.78,12638.6 2177.51,12629.4 2177.51,12618.1L2177.51,12579.3C2177.51,12568 2171.78,12558.8 2164.73,12558.8L2155.13,12558.8C2148.08,12558.8 2142.35,12568 2142.35,12579.3L2142.35,12618.1ZM2196.04,12618.1C2196.04,12629.4 2201.77,12638.6 2208.83,12638.6L2218.42,12638.6C2225.47,12638.6 2231.2,12629.4 2231.2,12618.1L2231.2,12579.3C2231.2,12568 2225.47,12558.8 2218.42,12558.8L2208.83,12558.8C2201.77,12558.8 2196.04,12568 2196.04,12579.3L2196.04,12618.1ZM2248.79,12618.1C2248.79,12629.4 2254.52,12638.6 2261.58,12638.6L2271.17,12638.6C2278.23,12638.6 2283.96,12629.4 2283.96,12618.1L2283.96,12579.3C2283.96,12568 2278.23,12558.8 2271.17,12558.8L2261.58,12558.8C2254.52,12558.8 2248.79,12568 2248.79,12579.3L2248.79,12618.1ZM2303.42,12618.1C2303.42,12629.4 2309.15,12638.6 2316.21,12638.6L2325.8,12638.6C2332.86,12638.6 2338.59,12629.4 2338.59,12618.1L2338.59,12579.3C2338.59,12568 2332.86,12558.8 2325.8,12558.8L2316.21,12558.8C2309.15,12558.8 2303.42,12568 2303.42,12579.3L2303.42,12618.1Z" style="fill:rgb(140,147,152);"/>
                        </g>
                        <g transform="matrix(1,0,0,1.33333,5664,-15233.4)">
                            <path d="M2356.47,12621.5C2356.47,12632.8 2362.2,12642 2369.26,12642L2378.85,12642C2385.91,12642 2391.64,12632.8 2391.64,12621.5L2391.64,12582.7C2391.64,12571.4 2385.91,12562.2 2378.85,12562.2L2369.26,12562.2C2362.2,12562.2 2356.47,12571.4 2356.47,12582.7L2356.47,12621.5ZM2409.23,12621.5C2409.23,12632.8 2414.96,12642 2422.01,12642L2431.61,12642C2438.66,12642 2444.39,12632.8 2444.39,12621.5L2444.39,12582.7C2444.39,12571.4 2438.66,12562.2 2431.61,12562.2L2422.01,12562.2C2414.96,12562.2 2409.23,12571.4 2409.23,12582.7L2409.23,12621.5ZM2463.86,12621.5C2463.86,12632.8 2469.59,12642 2476.64,12642L2486.23,12642C2493.29,12642 2499.02,12632.8 2499.02,12621.5L2499.02,12582.7C2499.02,12571.4 2493.29,12562.2 2486.23,12562.2L2476.64,12562.2C2469.59,12562.2 2463.86,12571.4 2463.86,12582.7L2463.86,12621.5ZM2517.55,12621.5C2517.55,12632.8 2523.28,12642 2530.33,12642L2539.93,12642C2546.98,12642 2552.71,12632.8 2552.71,12621.5L2552.71,12582.7C2552.71,12571.4 2546.98,12562.2 2539.93,12562.2L2530.33,12562.2C2523.28,12562.2 2517.55,12571.4 2517.55,12582.7L2517.55,12621.5ZM2570.3,12621.5C2570.3,12632.8 2576.03,12642 2583.09,12642L2592.68,12642C2599.74,12642 2605.47,12632.8 2605.47,12621.5L2605.47,12582.7C2605.47,12571.4 2599.74,12562.2 2592.68,12562.2L2583.09,12562.2C2576.03,12562.2 2570.3,12571.4 2570.3,12582.7L2570.3,12621.5ZM2034.97,12618.1C2034.97,12629.4 2040.69,12638.6 2047.75,12638.6L2057.34,12638.6C2064.4,12638.6 2070.13,12629.4 2070.13,12618.1L2070.13,12579.3C2070.13,12568 2064.4,12558.8 2057.34,12558.8L2047.75,12558.8C2040.69,12558.8 2034.97,12568 2034.97,12579.3L2034.97,12618.1ZM2087.72,12618.1C2087.72,12629.4 2093.45,12638.6 2100.51,12638.6L2110.1,12638.6C2117.16,12638.6 2122.89,12629.4 2122.89,12618.1L2122.89,12579.3C2122.89,12568 2117.16,12558.8 2110.1,12558.8L2100.51,12558.8C2093.45,12558.8 2087.72,12568 2087.72,12579.3L2087.72,12618.1ZM2142.35,12618.1C2142.35,12629.4 2148.08,12638.6 2155.13,12638.6L2164.73,12638.6C2171.78,12638.6 2177.51,12629.4 2177.51,12618.1L2177.51,12579.3C2177.51,12568 2171.78,12558.8 2164.73,12558.8L2155.13,12558.8C2148.08,12558.8 2142.35,12568 2142.35,12579.3L2142.35,12618.1ZM2196.04,12618.1C2196.04,12629.4 2201.77,12638.6 2208.83,12638.6L2218.42,12638.6C2225.47,12638.6 2231.2,12629.4 2231.2,12618.1L2231.2,12579.3C2231.2,12568 2225.47,12558.8 2218.42,12558.8L2208.83,12558.8C2201.77,12558.8 2196.04,12568 2196.04,12579.3L2196.04,12618.1ZM2248.79,12618.1C2248.79,12629.4 2254.52,12638.6 2261.58,12638.6L2271.17,12638.6C2278.23,12638.6 2283.96,12629.4 2283.96,12618.1L2283.96,12579.3C2283.96,12568 2278.23,12558.8 2271.17,12558.8L2261.58,12558.8C2254.52,12558.8 2248.79,12568 2248.79,12579.3L2248.79,12618.1ZM2303.42,12618.1C2303.42,12629.4 2309.15,12638.6 2316.21,12638.6L2325.8,12638.6C2332.86,12638.6 2338.59,12629.4 2338.59,12618.1L2338.59,12579.3C2338.59,12568 2332.86,12558.8 2325.8,12558.8L2316.21,12558.8C2309.15,12558.8 2303.42,12568 2303.42,12579.3L2303.42,12618.1Z" style="fill:rgb(185,185,185);"/>
                        </g>
                        <g transform="matrix(4.62416e-17,1.0103,-2.31027,1.89253e-16,9620.04,885.452)">
                            <path d="M930.194,577.255C930.194,574.376 923.066,572.038 914.287,572.038L682.336,572.038C673.557,572.038 666.429,574.376 666.429,577.255L666.429,835.396C666.429,838.275 673.557,840.613 682.336,840.613L914.287,840.613C923.066,840.613 930.194,838.275 930.194,835.396L930.194,577.255Z" style="fill:rgb(113,99,98);"/>
                            <clipPath id="_clip21">
                                <path d="M930.194,577.255C930.194,574.376 923.066,572.038 914.287,572.038L682.336,572.038C673.557,572.038 666.429,574.376 666.429,577.255L666.429,835.396C666.429,838.275 673.557,840.613 682.336,840.613L914.287,840.613C923.066,840.613 930.194,838.275 930.194,835.396L930.194,577.255Z"/>
                            </clipPath>
                            <g clip-path="url(#_clip21)">
                                <g transform="matrix(1.83296,1.90037e-32,2.46519e-32,0.59916,-766.821,296.514)">
                                    <path d="M914.482,458.527C923.353,458.527 930.555,465.729 930.555,474.6L930.555,893.885C930.555,902.755 923.352,909.958 914.482,909.958L890.202,909.958C898.963,909.958 906.077,902.844 906.077,894.083L906.077,474.402C906.077,465.64 898.963,458.527 890.202,458.527L914.482,458.527Z" style="fill-opacity:0.21;"/>
                                </g>
                            </g>
                        </g>
                    </g>
                    <g transform="matrix(1,0,0,1,19.3136,-420.945)">
                        <g transform="matrix(1,0,0,1.33333,5664,-14981.7)">
                            <path d="M2356.47,12621.5C2356.47,12632.8 2362.2,12642 2369.26,12642L2378.85,12642C2385.91,12642 2391.64,12632.8 2391.64,12621.5L2391.64,12582.7C2391.64,12571.4 2385.91,12562.2 2378.85,12562.2L2369.26,12562.2C2362.2,12562.2 2356.47,12571.4 2356.47,12582.7L2356.47,12621.5ZM2409.23,12621.5C2409.23,12632.8 2414.96,12642 2422.01,12642L2431.61,12642C2438.66,12642 2444.39,12632.8 2444.39,12621.5L2444.39,12582.7C2444.39,12571.4 2438.66,12562.2 2431.61,12562.2L2422.01,12562.2C2414.96,12562.2 2409.23,12571.4 2409.23,12582.7L2409.23,12621.5ZM2463.86,12621.5C2463.86,12632.8 2469.59,12642 2476.64,12642L2486.23,12642C2493.29,12642 2499.02,12632.8 2499.02,12621.5L2499.02,12582.7C2499.02,12571.4 2493.29,12562.2 2486.23,12562.2L2476.64,12562.2C2469.59,12562.2 2463.86,12571.4 2463.86,12582.7L2463.86,12621.5ZM2517.55,12621.5C2517.55,12632.8 2523.28,12642 2530.33,12642L2539.93,12642C2546.98,12642 2552.71,12632.8 2552.71,12621.5L2552.71,12582.7C2552.71,12571.4 2546.98,12562.2 2539.93,12562.2L2530.33,12562.2C2523.28,12562.2 2517.55,12571.4 2517.55,12582.7L2517.55,12621.5ZM2570.3,12621.5C2570.3,12632.8 2576.03,12642 2583.09,12642L2592.68,12642C2599.74,12642 2605.47,12632.8 2605.47,12621.5L2605.47,12582.7C2605.47,12571.4 2599.74,12562.2 2592.68,12562.2L2583.09,12562.2C2576.03,12562.2 2570.3,12571.4 2570.3,12582.7L2570.3,12621.5ZM2034.97,12618.1C2034.97,12629.4 2040.69,12638.6 2047.75,12638.6L2057.34,12638.6C2064.4,12638.6 2070.13,12629.4 2070.13,12618.1L2070.13,12579.3C2070.13,12568 2064.4,12558.8 2057.34,12558.8L2047.75,12558.8C2040.69,12558.8 2034.97,12568 2034.97,12579.3L2034.97,12618.1ZM2087.72,12618.1C2087.72,12629.4 2093.45,12638.6 2100.51,12638.6L2110.1,12638.6C2117.16,12638.6 2122.89,12629.4 2122.89,12618.1L2122.89,12579.3C2122.89,12568 2117.16,12558.8 2110.1,12558.8L2100.51,12558.8C2093.45,12558.8 2087.72,12568 2087.72,12579.3L2087.72,12618.1ZM2142.35,12618.1C2142.35,12629.4 2148.08,12638.6 2155.13,12638.6L2164.73,12638.6C2171.78,12638.6 2177.51,12629.4 2177.51,12618.1L2177.51,12579.3C2177.51,12568 2171.78,12558.8 2164.73,12558.8L2155.13,12558.8C2148.08,12558.8 2142.35,12568 2142.35,12579.3L2142.35,12618.1ZM2196.04,12618.1C2196.04,12629.4 2201.77,12638.6 2208.83,12638.6L2218.42,12638.6C2225.47,12638.6 2231.2,12629.4 2231.2,12618.1L2231.2,12579.3C2231.2,12568 2225.47,12558.8 2218.42,12558.8L2208.83,12558.8C2201.77,12558.8 2196.04,12568 2196.04,12579.3L2196.04,12618.1ZM2248.79,12618.1C2248.79,12629.4 2254.52,12638.6 2261.58,12638.6L2271.17,12638.6C2278.23,12638.6 2283.96,12629.4 2283.96,12618.1L2283.96,12579.3C2283.96,12568 2278.23,12558.8 2271.17,12558.8L2261.58,12558.8C2254.52,12558.8 2248.79,12568 2248.79,12579.3L2248.79,12618.1ZM2303.42,12618.1C2303.42,12629.4 2309.15,12638.6 2316.21,12638.6L2325.8,12638.6C2332.86,12638.6 2338.59,12629.4 2338.59,12618.1L2338.59,12579.3C2338.59,12568 2332.86,12558.8 2325.8,12558.8L2316.21,12558.8C2309.15,12558.8 2303.42,12568 2303.42,12579.3L2303.42,12618.1Z" style="fill:rgb(140,147,152);"/>
                        </g>
                        <g transform="matrix(1,0,0,1.33333,5664,-15233.4)">
                            <path d="M2356.47,12621.5C2356.47,12632.8 2362.2,12642 2369.26,12642L2378.85,12642C2385.91,12642 2391.64,12632.8 2391.64,12621.5L2391.64,12582.7C2391.64,12571.4 2385.91,12562.2 2378.85,12562.2L2369.26,12562.2C2362.2,12562.2 2356.47,12571.4 2356.47,12582.7L2356.47,12621.5ZM2409.23,12621.5C2409.23,12632.8 2414.96,12642 2422.01,12642L2431.61,12642C2438.66,12642 2444.39,12632.8 2444.39,12621.5L2444.39,12582.7C2444.39,12571.4 2438.66,12562.2 2431.61,12562.2L2422.01,12562.2C2414.96,12562.2 2409.23,12571.4 2409.23,12582.7L2409.23,12621.5ZM2463.86,12621.5C2463.86,12632.8 2469.59,12642 2476.64,12642L2486.23,12642C2493.29,12642 2499.02,12632.8 2499.02,12621.5L2499.02,12582.7C2499.02,12571.4 2493.29,12562.2 2486.23,12562.2L2476.64,12562.2C2469.59,12562.2 2463.86,12571.4 2463.86,12582.7L2463.86,12621.5ZM2517.55,12621.5C2517.55,12632.8 2523.28,12642 2530.33,12642L2539.93,12642C2546.98,12642 2552.71,12632.8 2552.71,12621.5L2552.71,12582.7C2552.71,12571.4 2546.98,12562.2 2539.93,12562.2L2530.33,12562.2C2523.28,12562.2 2517.55,12571.4 2517.55,12582.7L2517.55,12621.5ZM2570.3,12621.5C2570.3,12632.8 2576.03,12642 2583.09,12642L2592.68,12642C2599.74,12642 2605.47,12632.8 2605.47,12621.5L2605.47,12582.7C2605.47,12571.4 2599.74,12562.2 2592.68,12562.2L2583.09,12562.2C2576.03,12562.2 2570.3,12571.4 2570.3,12582.7L2570.3,12621.5ZM2034.97,12618.1C2034.97,12629.4 2040.69,12638.6 2047.75,12638.6L2057.34,12638.6C2064.4,12638.6 2070.13,12629.4 2070.13,12618.1L2070.13,12579.3C2070.13,12568 2064.4,12558.8 2057.34,12558.8L2047.75,12558.8C2040.69,12558.8 2034.97,12568 2034.97,12579.3L2034.97,12618.1ZM2087.72,12618.1C2087.72,12629.4 2093.45,12638.6 2100.51,12638.6L2110.1,12638.6C2117.16,12638.6 2122.89,12629.4 2122.89,12618.1L2122.89,12579.3C2122.89,12568 2117.16,12558.8 2110.1,12558.8L2100.51,12558.8C2093.45,12558.8 2087.72,12568 2087.72,12579.3L2087.72,12618.1ZM2142.35,12618.1C2142.35,12629.4 2148.08,12638.6 2155.13,12638.6L2164.73,12638.6C2171.78,12638.6 2177.51,12629.4 2177.51,12618.1L2177.51,12579.3C2177.51,12568 2171.78,12558.8 2164.73,12558.8L2155.13,12558.8C2148.08,12558.8 2142.35,12568 2142.35,12579.3L2142.35,12618.1ZM2196.04,12618.1C2196.04,12629.4 2201.77,12638.6 2208.83,12638.6L2218.42,12638.6C2225.47,12638.6 2231.2,12629.4 2231.2,12618.1L2231.2,12579.3C2231.2,12568 2225.47,12558.8 2218.42,12558.8L2208.83,12558.8C2201.77,12558.8 2196.04,12568 2196.04,12579.3L2196.04,12618.1ZM2248.79,12618.1C2248.79,12629.4 2254.52,12638.6 2261.58,12638.6L2271.17,12638.6C2278.23,12638.6 2283.96,12629.4 2283.96,12618.1L2283.96,12579.3C2283.96,12568 2278.23,12558.8 2271.17,12558.8L2261.58,12558.8C2254.52,12558.8 2248.79,12568 2248.79,12579.3L2248.79,12618.1ZM2303.42,12618.1C2303.42,12629.4 2309.15,12638.6 2316.21,12638.6L2325.8,12638.6C2332.86,12638.6 2338.59,12629.4 2338.59,12618.1L2338.59,12579.3C2338.59,12568 2332.86,12558.8 2325.8,12558.8L2316.21,12558.8C2309.15,12558.8 2303.42,12568 2303.42,12579.3L2303.42,12618.1Z" style="fill:rgb(185,185,185);"/>
                        </g>
                        <g transform="matrix(4.62416e-17,1.0103,-2.31027,1.89253e-16,9620.04,885.452)">
                            <path d="M930.194,577.255C930.194,574.376 923.066,572.038 914.287,572.038L682.336,572.038C673.557,572.038 666.429,574.376 666.429,577.255L666.429,835.396C666.429,838.275 673.557,840.613 682.336,840.613L914.287,840.613C923.066,840.613 930.194,838.275 930.194,835.396L930.194,577.255Z" style="fill:rgb(113,99,98);"/>
                            <clipPath id="_clip22">
                                <path d="M930.194,577.255C930.194,574.376 923.066,572.038 914.287,572.038L682.336,572.038C673.557,572.038 666.429,574.376 666.429,577.255L666.429,835.396C666.429,838.275 673.557,840.613 682.336,840.613L914.287,840.613C923.066,840.613 930.194,838.275 930.194,835.396L930.194,577.255Z"/>
                            </clipPath>
                            <g clip-path="url(#_clip22)">
                                <g transform="matrix(1.83296,1.90037e-32,2.46519e-32,0.59916,-766.821,296.514)">
                                    <path d="M914.482,458.527C923.353,458.527 930.555,465.729 930.555,474.6L930.555,893.885C930.555,902.755 923.352,909.958 914.482,909.958L890.202,909.958C898.963,909.958 906.077,902.844 906.077,894.083L906.077,474.402C906.077,465.64 898.963,458.527 890.202,458.527L914.482,458.527Z" style="fill-opacity:0.21;"/>
                                </g>
                            </g>
                        </g>
                    </g>
                    <g transform="matrix(1,0,0,1,19.3136,52.1056)">
                        <g transform="matrix(1,0,0,1.33333,5664,-14981.7)">
                            <path d="M2356.47,12621.5C2356.47,12632.8 2362.2,12642 2369.26,12642L2378.85,12642C2385.91,12642 2391.64,12632.8 2391.64,12621.5L2391.64,12582.7C2391.64,12571.4 2385.91,12562.2 2378.85,12562.2L2369.26,12562.2C2362.2,12562.2 2356.47,12571.4 2356.47,12582.7L2356.47,12621.5ZM2409.23,12621.5C2409.23,12632.8 2414.96,12642 2422.01,12642L2431.61,12642C2438.66,12642 2444.39,12632.8 2444.39,12621.5L2444.39,12582.7C2444.39,12571.4 2438.66,12562.2 2431.61,12562.2L2422.01,12562.2C2414.96,12562.2 2409.23,12571.4 2409.23,12582.7L2409.23,12621.5ZM2463.86,12621.5C2463.86,12632.8 2469.59,12642 2476.64,12642L2486.23,12642C2493.29,12642 2499.02,12632.8 2499.02,12621.5L2499.02,12582.7C2499.02,12571.4 2493.29,12562.2 2486.23,12562.2L2476.64,12562.2C2469.59,12562.2 2463.86,12571.4 2463.86,12582.7L2463.86,12621.5ZM2517.55,12621.5C2517.55,12632.8 2523.28,12642 2530.33,12642L2539.93,12642C2546.98,12642 2552.71,12632.8 2552.71,12621.5L2552.71,12582.7C2552.71,12571.4 2546.98,12562.2 2539.93,12562.2L2530.33,12562.2C2523.28,12562.2 2517.55,12571.4 2517.55,12582.7L2517.55,12621.5ZM2570.3,12621.5C2570.3,12632.8 2576.03,12642 2583.09,12642L2592.68,12642C2599.74,12642 2605.47,12632.8 2605.47,12621.5L2605.47,12582.7C2605.47,12571.4 2599.74,12562.2 2592.68,12562.2L2583.09,12562.2C2576.03,12562.2 2570.3,12571.4 2570.3,12582.7L2570.3,12621.5ZM2034.97,12618.1C2034.97,12629.4 2040.69,12638.6 2047.75,12638.6L2057.34,12638.6C2064.4,12638.6 2070.13,12629.4 2070.13,12618.1L2070.13,12579.3C2070.13,12568 2064.4,12558.8 2057.34,12558.8L2047.75,12558.8C2040.69,12558.8 2034.97,12568 2034.97,12579.3L2034.97,12618.1ZM2087.72,12618.1C2087.72,12629.4 2093.45,12638.6 2100.51,12638.6L2110.1,12638.6C2117.16,12638.6 2122.89,12629.4 2122.89,12618.1L2122.89,12579.3C2122.89,12568 2117.16,12558.8 2110.1,12558.8L2100.51,12558.8C2093.45,12558.8 2087.72,12568 2087.72,12579.3L2087.72,12618.1ZM2142.35,12618.1C2142.35,12629.4 2148.08,12638.6 2155.13,12638.6L2164.73,12638.6C2171.78,12638.6 2177.51,12629.4 2177.51,12618.1L2177.51,12579.3C2177.51,12568 2171.78,12558.8 2164.73,12558.8L2155.13,12558.8C2148.08,12558.8 2142.35,12568 2142.35,12579.3L2142.35,12618.1ZM2196.04,12618.1C2196.04,12629.4 2201.77,12638.6 2208.83,12638.6L2218.42,12638.6C2225.47,12638.6 2231.2,12629.4 2231.2,12618.1L2231.2,12579.3C2231.2,12568 2225.47,12558.8 2218.42,12558.8L2208.83,12558.8C2201.77,12558.8 2196.04,12568 2196.04,12579.3L2196.04,12618.1ZM2248.79,12618.1C2248.79,12629.4 2254.52,12638.6 2261.58,12638.6L2271.17,12638.6C2278.23,12638.6 2283.96,12629.4 2283.96,12618.1L2283.96,12579.3C2283.96,12568 2278.23,12558.8 2271.17,12558.8L2261.58,12558.8C2254.52,12558.8 2248.79,12568 2248.79,12579.3L2248.79,12618.1ZM2303.42,12618.1C2303.42,12629.4 2309.15,12638.6 2316.21,12638.6L2325.8,12638.6C2332.86,12638.6 2338.59,12629.4 2338.59,12618.1L2338.59,12579.3C2338.59,12568 2332.86,12558.8 2325.8,12558.8L2316.21,12558.8C2309.15,12558.8 2303.42,12568 2303.42,12579.3L2303.42,12618.1Z" style="fill:rgb(140,147,152);"/>
                        </g>
                        <g transform="matrix(1,0,0,1.33333,5664,-15233.4)">
                            <path d="M2356.47,12621.5C2356.47,12632.8 2362.2,12642 2369.26,12642L2378.85,12642C2385.91,12642 2391.64,12632.8 2391.64,12621.5L2391.64,12582.7C2391.64,12571.4 2385.91,12562.2 2378.85,12562.2L2369.26,12562.2C2362.2,12562.2 2356.47,12571.4 2356.47,12582.7L2356.47,12621.5ZM2409.23,12621.5C2409.23,12632.8 2414.96,12642 2422.01,12642L2431.61,12642C2438.66,12642 2444.39,12632.8 2444.39,12621.5L2444.39,12582.7C2444.39,12571.4 2438.66,12562.2 2431.61,12562.2L2422.01,12562.2C2414.96,12562.2 2409.23,12571.4 2409.23,12582.7L2409.23,12621.5ZM2463.86,12621.5C2463.86,12632.8 2469.59,12642 2476.64,12642L2486.23,12642C2493.29,12642 2499.02,12632.8 2499.02,12621.5L2499.02,12582.7C2499.02,12571.4 2493.29,12562.2 2486.23,12562.2L2476.64,12562.2C2469.59,12562.2 2463.86,12571.4 2463.86,12582.7L2463.86,12621.5ZM2517.55,12621.5C2517.55,12632.8 2523.28,12642 2530.33,12642L2539.93,12642C2546.98,12642 2552.71,12632.8 2552.71,12621.5L2552.71,12582.7C2552.71,12571.4 2546.98,12562.2 2539.93,12562.2L2530.33,12562.2C2523.28,12562.2 2517.55,12571.4 2517.55,12582.7L2517.55,12621.5ZM2570.3,12621.5C2570.3,12632.8 2576.03,12642 2583.09,12642L2592.68,12642C2599.74,12642 2605.47,12632.8 2605.47,12621.5L2605.47,12582.7C2605.47,12571.4 2599.74,12562.2 2592.68,12562.2L2583.09,12562.2C2576.03,12562.2 2570.3,12571.4 2570.3,12582.7L2570.3,12621.5ZM2034.97,12618.1C2034.97,12629.4 2040.69,12638.6 2047.75,12638.6L2057.34,12638.6C2064.4,12638.6 2070.13,12629.4 2070.13,12618.1L2070.13,12579.3C2070.13,12568 2064.4,12558.8 2057.34,12558.8L2047.75,12558.8C2040.69,12558.8 2034.97,12568 2034.97,12579.3L2034.97,12618.1ZM2087.72,12618.1C2087.72,12629.4 2093.45,12638.6 2100.51,12638.6L2110.1,12638.6C2117.16,12638.6 2122.89,12629.4 2122.89,12618.1L2122.89,12579.3C2122.89,12568 2117.16,12558.8 2110.1,12558.8L2100.51,12558.8C2093.45,12558.8 2087.72,12568 2087.72,12579.3L2087.72,12618.1ZM2142.35,12618.1C2142.35,12629.4 2148.08,12638.6 2155.13,12638.6L2164.73,12638.6C2171.78,12638.6 2177.51,12629.4 2177.51,12618.1L2177.51,12579.3C2177.51,12568 2171.78,12558.8 2164.73,12558.8L2155.13,12558.8C2148.08,12558.8 2142.35,12568 2142.35,12579.3L2142.35,12618.1ZM2196.04,12618.1C2196.04,12629.4 2201.77,12638.6 2208.83,12638.6L2218.42,12638.6C2225.47,12638.6 2231.2,12629.4 2231.2,12618.1L2231.2,12579.3C2231.2,12568 2225.47,12558.8 2218.42,12558.8L2208.83,12558.8C2201.77,12558.8 2196.04,12568 2196.04,12579.3L2196.04,12618.1ZM2248.79,12618.1C2248.79,12629.4 2254.52,12638.6 2261.58,12638.6L2271.17,12638.6C2278.23,12638.6 2283.96,12629.4 2283.96,12618.1L2283.96,12579.3C2283.96,12568 2278.23,12558.8 2271.17,12558.8L2261.58,12558.8C2254.52,12558.8 2248.79,12568 2248.79,12579.3L2248.79,12618.1ZM2303.42,12618.1C2303.42,12629.4 2309.15,12638.6 2316.21,12638.6L2325.8,12638.6C2332.86,12638.6 2338.59,12629.4 2338.59,12618.1L2338.59,12579.3C2338.59,12568 2332.86,12558.8 2325.8,12558.8L2316.21,12558.8C2309.15,12558.8 2303.42,12568 2303.42,12579.3L2303.42,12618.1Z" style="fill:rgb(185,185,185);"/>
                        </g>
                        <g transform="matrix(4.62416e-17,1.0103,-2.31027,1.89253e-16,9620.04,885.452)">
                            <path d="M930.194,577.255C930.194,574.376 923.066,572.038 914.287,572.038L682.336,572.038C673.557,572.038 666.429,574.376 666.429,577.255L666.429,835.396C666.429,838.275 673.557,840.613 682.336,840.613L914.287,840.613C923.066,840.613 930.194,838.275 930.194,835.396L930.194,577.255Z" style="fill:rgb(113,99,98);"/>
                            <clipPath id="_clip23">
                                <path d="M930.194,577.255C930.194,574.376 923.066,572.038 914.287,572.038L682.336,572.038C673.557,572.038 666.429,574.376 666.429,577.255L666.429,835.396C666.429,838.275 673.557,840.613 682.336,840.613L914.287,840.613C923.066,840.613 930.194,838.275 930.194,835.396L930.194,577.255Z"/>
                            </clipPath>
                            <g clip-path="url(#_clip23)">
                                <g transform="matrix(1.83296,1.90037e-32,2.46519e-32,0.59916,-766.821,296.514)">
                                    <path d="M914.482,458.527C923.353,458.527 930.555,465.729 930.555,474.6L930.555,893.885C930.555,902.755 923.352,909.958 914.482,909.958L890.202,909.958C898.963,909.958 906.077,902.844 906.077,894.083L906.077,474.402C906.077,465.64 898.963,458.527 890.202,458.527L914.482,458.527Z" style="fill-opacity:0.21;"/>
                                </g>
                            </g>
                        </g>
                    </g>
                </g>
            </g>
        </g>
    </g>
</svg>
