<?xml version="1.0" encoding="UTF-8" standalone="no"?>
<!DOCTYPE svg PUBLIC "-//W3C//DTD SVG 1.1//EN" "http://www.w3.org/Graphics/SVG/1.1/DTD/svg11.dtd">
<svg width="100%" height="100%" viewBox="0 0 2732 1536" version="1.1" xmlns="http://www.w3.org/2000/svg" xmlns:xlink="http://www.w3.org/1999/xlink" xml:space="preserve" xmlns:serif="http://www.serif.com/" style="fill-rule:evenodd;clip-rule:evenodd;stroke-linejoin:round;stroke-miterlimit:2;">
    <g transform="matrix(1,0,0,1,-2900.17,-3324.34)">
        <g id="Atari-ST" serif:id="Atari ST" transform="matrix(1,0,0,0.75,-5595.83,3324.34)">
            <rect x="8496" y="0" width="2732" height="2048" style="fill:none;"/>
            <clipPath id="_clip1">
                <rect x="8496" y="0" width="2732" height="2048"/>
            </clipPath>
            <g clip-path="url(#_clip1)">
                <g transform="matrix(1.48625,0,0,2.28086,8169.62,-5463.68)">
                    <rect x="219.597" y="2312.67" width="1838.19" height="1197.21" style="fill:rgb(170,170,169);"/>
                </g>
                <g transform="matrix(0.706819,0.943193,-1.06001,1.4122,12317.5,-5006.45)">
                    <rect x="-235.022" y="2104.4" width="2192.03" height="2443.58" style="fill:rgb(172,172,171);"/>
                </g>
                <g transform="matrix(1,0,0,1.33333,8496,-3098.06)">
                    <path d="M2974.05,2181.95L383.83,4770.07L177.801,4563.87L2768.02,1975.76L2974.05,2181.95ZM2459.84,2181.95L2253.81,1975.76L-336.414,4563.87L-130.384,4770.07L2459.84,2181.95ZM1945.62,2181.95L1739.59,1975.76L-850.628,4563.87L-644.599,4770.07L1945.62,2181.95ZM1431.41,2181.95L1225.38,1975.76L-1364.84,4563.87L-1158.81,4770.07L1431.41,2181.95ZM917.194,2181.95L711.164,1975.76L-1879.06,4563.87L-1673.03,4770.07L917.194,2181.95ZM402.979,2181.95L196.95,1975.76L-2393.27,4563.87L-2187.24,4770.07L402.979,2181.95Z" style="fill:rgb(210,218,200);"/>
                </g>
                <g transform="matrix(1,0,0,1.33333,8496,-3098.06)">
                    <path d="M1632.55,3620.24L2729.92,3615.83L2729.92,4229.95L1021.73,4229.95L1632.55,3620.24Z" style="fill:rgb(208,214,196);"/>
                </g>
                <g transform="matrix(1,0,0,1.33333,8502,-6102.5)">
                    <path d="M2686.41,4812.52L2683.71,5482.07L2683.71,5482.07C2683.71,5579.31 2763.03,5658.14 2860.88,5658.14L2860.88,5834.21C2665.18,5834.21 2506.54,5676.55 2506.54,5482.07L2506.54,4992.24L2686.41,4812.52ZM2258.15,5240.42L2258.15,5470.94C2258.15,5665.42 2099.5,5823.07 1903.81,5823.07L1903.81,5647.01L1903.81,5823.07L1675.02,5823.07L1851.16,5647.08L1903.81,5647.01L1903.81,5647.01C2001.65,5647.01 2080.98,5568.18 2080.98,5470.94L2080.98,5417.45L2258.15,5240.42ZM2473.54,5025.2L2473.54,5823.07L2295.8,5823.07L2295.8,5202.8L2473.54,5025.2Z" style="fill:rgb(240,237,221);"/>
                </g>
            </g>
        </g>
    </g>
</svg>
