<?xml version="1.0" encoding="UTF-8" standalone="no"?>
<!DOCTYPE svg PUBLIC "-//W3C//DTD SVG 1.1//EN" "http://www.w3.org/Graphics/SVG/1.1/DTD/svg11.dtd">
<svg width="100%" height="100%" viewBox="0 0 2732 1536" version="1.1" xmlns="http://www.w3.org/2000/svg" xmlns:xlink="http://www.w3.org/1999/xlink" xml:space="preserve" xmlns:serif="http://www.serif.com/" style="fill-rule:evenodd;clip-rule:evenodd;stroke-linejoin:round;stroke-miterlimit:2;">
    <g transform="matrix(1,0,0,1,-5766.22,-5006.91)">
        <g id="BBC-Micro" serif:id="BBC Micro" transform="matrix(1,0,0,1,-2765.17,5006.91)">
            <rect x="8531.39" y="0" width="2732" height="1536" style="fill:none;"/>
            <clipPath id="_clip1">
                <rect x="8531.39" y="0" width="2732" height="1536"/>
            </clipPath>
            <g clip-path="url(#_clip1)">
                <g transform="matrix(10.5754,0,0,7.13937,-96133.4,-1437.54)">
                    <rect x="9897" y="201.008" width="258.335" height="215.492" style="fill:rgb(32,29,33);"/>
                </g>
                <g id="path8428" transform="matrix(0.589473,0,0,0.589473,10747.2,972.221)">
                    <path d="M548.731,713.272C541.35,710.875 536.43,706.59 532.66,699.279C530.923,695.911 530.404,693.22 530.404,687.596L530.404,680.289L525.737,680.841C509.631,682.749 495.021,668.158 497.127,652.268L497.738,647.655L489.959,647.629C483.335,647.606 481.495,647.202 477.564,644.898C468.23,639.428 464.35,632.683 464.299,621.842L464.262,614.031L459.552,614.679C449.725,616.03 438.335,609.969 433.468,600.796C431.733,597.526 431.266,594.951 431.253,588.566L431.234,580.479L427.454,581.328C424.078,582.086 421.853,581.927 416.686,580.558C415.381,580.211 415.201,581.128 415.538,586.416C416.079,594.915 414.506,599.995 409.611,605.556C403.047,613.013 394.491,616.233 386.194,614.368L382.234,613.479L382.234,630.854L385.492,629.955C389.228,628.923 398.146,630.281 402.534,632.55C410.753,636.801 416.217,647.224 415.568,657.416C414.168,679.407 387.142,688.911 371.587,672.883C366.255,667.388 364.351,661.751 364.958,653.258L365.452,646.356L362.507,647.382C360.888,647.947 357.239,648.136 354.398,647.803L349.234,647.198L349.201,654.926C349.151,666.584 344.527,673.957 334.234,678.788C312.765,688.863 290.591,665.316 301.176,643.682C306.53,632.738 320.539,626.688 331.121,630.749C332.058,631.108 332.259,629.739 331.932,625.224C331.345,617.102 332.205,613.295 335.882,607.743C341.282,599.59 352.865,594.674 361.504,596.868L365.234,597.815L365.234,580.654L358.356,580.991C349.129,581.443 344.06,579.423 338.275,572.988C333.01,567.133 331.373,562.16 331.914,553.67L332.297,547.654L316.234,547.654L316.208,555.154C316.188,561.312 315.704,563.57 313.507,567.773C308.57,577.222 300.648,581.58 289.478,580.994L282.985,580.654L283.042,588.154C283.107,596.616 281.65,600.901 276.847,606.372C272.012,611.878 265.604,614.515 257.105,614.495L249.977,614.48L249.908,630.403L254.49,629.775C260.84,628.905 269.647,631.533 274.607,635.779C280.121,640.499 283.085,647.046 283.124,654.592C283.179,665.39 279.151,672.473 269.846,677.943C263.707,681.552 252.473,681.795 246.165,678.454C236.683,673.433 230.794,662.297 232.162,651.979L232.813,647.076L227.973,647.718C225.312,648.071 221.564,647.926 219.645,647.397L216.156,646.433L216.564,652.833C217.089,661.075 215.369,667.053 211.008,672.148C205.718,678.327 200.685,680.529 191.733,680.579C182.935,680.629 178.166,678.59 172.557,672.381C167.449,666.727 165.332,660.518 166,653.148C167.361,638.145 181.052,627.433 195.454,630.103L199.675,630.886L199.076,625.163C198.218,616.954 200.719,610.074 206.755,604.039C213.201,597.592 223.345,594.536 229.954,597.049L232.305,597.943L232.305,580.502L228.269,581.246C212.423,584.166 197.641,570.188 199.09,553.655L199.616,547.655L192.424,547.975C186.098,548.257 184.57,547.949 179.751,545.433C170.006,540.342 165.017,531.162 166.006,520.141L166.501,514.628L159.367,514.977C153.065,515.285 151.595,514.992 146.752,512.448C137.02,507.338 132.118,498.334 132.934,487.064L133.34,481.45L126.73,481.923C121.035,482.331 119.328,482.022 114.411,479.696C108.214,476.764 102.722,470.681 100.676,464.482C100.037,462.543 99.695,458.102 99.917,454.613L100.321,448.269L94.277,448.797C83.489,449.739 73.896,444.275 69.09,434.451C66.796,429.763 66.531,428.204 66.942,421.805L67.411,414.506L63.093,415.494C48.943,418.732 33.329,405.874 33.468,391.098C33.497,387.963 33.808,384.495 34.159,383.391C34.761,381.494 34.548,381.437 30.26,382.352C21.091,384.307 9.571,379.4 4.169,371.236C2.794,369.159 1.168,364.765 0.556,361.473C-2.598,344.514 11.829,329.481 29.291,331.533L34.521,332.148L33.727,328.627C33.291,326.691 33.085,324.33 33.27,323.381C33.455,322.432 33.829,320.292 34.101,318.626L34.595,315.597L27.612,315.992C18.905,316.484 13.353,314.539 7.901,309.087C3.079,304.265 1.076,300.219 0.185,293.497C-1.22,282.906 5.528,271.64 15.969,267.149C20.207,265.326 22.407,265.006 27.972,265.404C33.984,265.834 34.723,265.697 34.259,264.236C33.459,261.716 33.385,251.528 34.158,250.278C34.64,249.497 33.144,249.35 29.036,249.776C18.978,250.819 11.247,247.472 5.103,239.417C-2.404,229.575 -1.389,215.646 7.482,206.775C13.557,200.7 18.67,198.813 27.679,199.322C33.659,199.66 34.662,199.487 34.279,198.188C32.863,193.374 32.721,191.165 33.582,187.334L34.538,183.078L28.886,183.682C18.041,184.841 7.968,179.432 3.016,169.787C-4.335,155.471 3.618,137.487 19.072,133.478C25.595,131.786 27.226,131.814 33.678,133.73C45.077,137.115 52.811,149.407 51.275,161.699L50.609,167.029L54.265,166.02C63.613,163.439 76.895,169.904 82.02,179.531C83.754,182.787 84.216,185.339 84.218,191.655L84.22,199.655L92.728,199.677C100.244,199.696 101.724,200.013 105.407,202.389C113.822,207.817 118.381,217.118 117.483,227.023L116.97,232.682L124.103,232.35C130.339,232.059 131.929,232.372 136.73,234.836C146.41,239.804 151.356,248.921 150.534,260.282L150.126,265.93L155.681,265.432C166.737,264.439 175.902,269.407 181.03,279.173C183.56,283.993 183.866,285.503 183.565,291.668L183.222,298.681L199.237,298.658L199.26,291.158C199.278,285.442 199.792,282.707 201.422,279.658C204.003,274.829 209.041,269.569 213.088,267.476C217.298,265.299 226.82,264.641 232.223,266.154C237.283,267.571 244.975,273.783 247.346,278.369C249.427,282.393 250.603,290.422 249.775,294.952L249.097,298.658L266.288,298.658L265.321,293.936C263.831,286.662 266.557,279.205 273.092,272.683C279.239,266.547 284.752,264.61 293.741,265.425C305.041,266.449 314.627,275.571 316.328,286.918C317.96,297.799 312.14,308.857 302.228,313.706C297.318,316.108 295.847,316.364 289.336,315.946L281.986,315.474L282.94,318.929C283.464,320.83 283.593,324.567 283.226,327.235L282.559,332.085L287.481,331.502C304.05,329.539 318.349,343.897 316.381,360.519C314.62,375.382 296.658,386.971 283.577,381.684C282.1,381.087 282.024,381.489 282.887,385.331C283.421,387.705 283.568,391.749 283.215,394.316L282.573,398.984L286.405,398.11C294.543,396.252 304.767,399.881 310.143,406.536C315.486,413.151 316.164,415.064 316.202,423.658L316.237,431.658L324.737,431.658C332.683,431.659 333.539,431.869 337.872,434.878C346.522,440.884 350.8,450.383 349.413,460.503L348.839,464.692L356.038,464.339C362.415,464.028 363.863,464.317 368.719,466.865C378.433,471.966 383.352,480.98 382.541,492.196L382.138,497.756L387.839,497.344C404.176,496.162 416.595,508.336 415.565,524.521L415.154,530.97L420.271,530.442C428.068,529.637 435.941,532.309 441.163,537.532C446.842,543.21 449.014,549.066 448.578,557.521L448.237,564.121L453.324,563.521C461.034,562.611 468.884,565.252 474.164,570.532C479.866,576.234 482.013,582.056 481.578,590.637L481.237,597.353L485.858,596.738C496.757,595.288 507.454,600.809 512.444,610.462C514.699,614.823 515.119,616.881 515.06,623.273L514.99,630.889L518.893,630.012C522.402,629.223 524.653,629.382 529.889,630.787C531.337,631.176 531.425,630.713 530.6,627.044C526.567,609.091 544.974,592.306 562.961,597.534C569.31,599.38 575.943,604.747 579.005,610.515C582.053,616.259 582.044,627.881 578.986,633.753C576.68,638.181 571.518,643.185 566.669,645.693C562.636,647.778 554.618,648.661 551.039,647.413L548.165,646.411L548.159,663.658L554.874,663.329C569.256,662.624 579.931,671.966 581.439,686.578C582.475,696.618 576.364,707.213 566.904,711.777C562.879,713.719 552.682,714.559 548.729,713.275L548.731,713.272ZM265.541,560.409C265.025,558.539 265.012,555.146 265.51,552.409L266.375,547.655L258.306,547.837C253.868,547.937 250.053,548.162 249.829,548.337C249.604,548.512 249.729,550.299 250.106,552.307C250.483,554.316 250.398,557.711 249.917,559.852L249.042,563.744L266.438,563.655L265.541,560.409L265.541,560.409ZM398.237,563.655L398.237,547.655L382.237,547.655L382.237,563.655L398.237,563.655ZM232.086,525.491C231.754,522.65 231.927,519.05 232.471,517.491L233.46,514.655L216.237,514.655L216.237,530.716L232.69,530.656L232.086,525.491L232.086,525.491ZM299.237,522.655L299.237,514.655L282.737,514.655L283.339,519.205C283.671,521.707 283.513,525.308 282.988,527.207L282.035,530.659L299.237,530.655L299.237,522.655L299.237,522.655ZM365.237,522.685L365.237,514.655L349.212,514.655L349.237,530.655L365.237,530.715L365.237,522.684L365.237,522.685ZM199.237,497.655L199.237,481.655L183.237,481.655L183.237,497.655L199.237,497.655ZM265.298,492.655C264.965,489.905 265.09,486.304 265.574,484.652L266.455,481.65L249.078,481.654L250.054,485.501C250.678,487.961 250.687,490.846 250.079,493.501L249.128,497.654L265.902,497.654L265.298,492.654L265.298,492.655ZM332.237,497.655L332.237,481.655L316.237,481.655L316.237,497.655L332.237,497.655ZM166.237,464.655L166.237,448.655L150.237,448.655L150.237,464.655L166.237,464.655ZM232.294,456.655L232.237,448.655L216.046,448.587L216.791,451.893C217.202,453.712 217.386,455.976 217.201,456.926C217.015,457.875 216.644,460.002 216.375,461.652L215.887,464.652L232.351,464.652L232.294,456.652L232.294,456.655ZM299.237,464.657L299.237,448.655L283.237,448.632L283.237,464.657L299.237,464.657ZM133.237,431.656L133.237,414.546L128.91,415.536C126.073,416.186 123.319,416.189 120.91,415.547L117.237,414.567L117.237,431.656L133.237,431.656ZM199.248,423.404L199.237,415.153L194.687,415.756C192.185,416.088 188.585,415.93 186.687,415.406L183.237,414.453L183.237,431.655L199.258,431.655L199.248,423.404L199.248,423.404ZM265.959,429.155C265.578,427.78 265.32,424.18 265.386,421.155L265.507,415.655L257.267,415.583L249.028,415.511L249.859,419.083C250.316,421.047 250.434,424.68 250.12,427.155L249.55,431.655L266.651,431.655L265.959,429.155L265.959,429.155ZM96.314,397.947L100.237,398.827L100.237,381.479L96.337,382.355C94.192,382.838 90.592,382.956 88.337,382.618L84.237,382.004L84.211,398.811L88.3,397.939C90.639,397.44 94.07,397.444 96.314,397.947L96.314,397.947ZM161.9,397.88L166.237,398.804L166.241,381.503L162.162,382.373C159.833,382.87 156.401,382.865 154.16,382.361L150.237,381.48L150.237,398.815L153.9,397.886C156.149,397.315 159.237,397.313 161.9,397.882L161.9,397.88ZM227.154,397.687C228.85,398.026 230.994,398.516 231.919,398.775C233.405,399.192 233.481,398.809 232.567,395.5C231.998,393.44 231.826,389.54 232.185,386.833L232.838,381.913L228.438,382.572C226.017,382.935 222.153,382.809 219.851,382.292C216.006,381.428 215.713,381.503 216.258,383.22C217.056,385.736 217.081,394.497 216.296,396.969C215.704,398.833 215.929,398.899 219.868,398.014C222.18,397.494 225.459,397.347 227.154,397.687L227.154,397.687ZM61.737,364.588L67.237,365.193L67.237,356.685C67.237,349.613 66.984,348.244 65.737,348.573C60.596,349.93 58.379,350.084 54.981,349.321L51.166,348.464L51.166,365.942L53.701,364.962C55.096,364.423 58.712,364.254 61.737,364.587L61.737,364.588ZM129.39,364.839L133.237,365.815L133.237,348.655L117.237,348.655L117.233,365.764L121.388,364.813C124.045,364.205 126.929,364.214 129.39,364.84L129.39,364.839ZM199.283,357.405L199.237,348.655L183.237,348.655L183.237,365.194L188.737,364.593C192.91,364.136 198.44,364.922 199.283,366.092C199.308,366.126 199.308,362.217 199.283,357.405L199.283,357.405ZM265.51,361.161C264.827,358.469 264.823,355.859 265.497,353.203C266.049,351.03 266.306,349.057 266.068,348.82C265.831,348.582 264.003,348.757 262.005,349.207C260.007,349.658 256.318,349.643 253.806,349.173C251.294,348.704 249.151,348.408 249.043,348.516C248.936,348.623 249.244,350.468 249.728,352.615C250.212,354.762 250.241,358.488 249.791,360.894L248.974,365.269L254.106,364.679C256.928,364.354 260.587,364.489 262.237,364.98C266.331,366.196 266.684,365.784 265.511,361.161L265.51,361.161ZM161.072,331.507L166.237,332.114L166.237,315.655L150.237,315.655L150.237,332.878L153.072,331.889C154.632,331.345 158.232,331.173 161.072,331.507ZM100.237,331.655L100.237,315.655L84.237,315.655L84.237,331.655L100.237,331.655ZM232.486,328.864C231.934,327.28 231.754,323.66 232.087,320.819L232.692,315.655L216.237,315.655L216.237,331.655L233.49,331.745L232.486,328.865L232.486,328.864ZM67.237,290.686L67.237,282.655L51.237,282.655L51.237,298.655L67.237,298.715L67.237,290.685L67.237,290.686ZM133.237,298.655L133.237,282.655L117.237,282.655L117.237,298.655L133.237,298.655ZM100.237,265.655L100.237,249.655L84.237,249.655L84.237,265.655L100.237,265.655ZM67.237,224.655L67.237,216.655L51.097,216.655L51.167,224.655L51.237,232.655L67.237,232.655L67.237,224.655L67.237,224.655ZM50.481,679.789C44.889,677.702 38.209,671.762 35.756,666.696C30.775,656.405 34.215,641.444 43.032,635.056C54.963,626.414 69.996,628.216 78.792,639.344C83.436,645.219 85.146,650.809 84.433,657.778C83.527,666.614 77.968,674.544 69.782,678.675C65.176,681 55.259,681.572 50.481,679.789ZM116.2,679.564C98.878,673.414 93.911,649.545 107.371,637.138C113.159,631.804 117.804,629.916 125.237,629.878C132.364,629.841 137.089,631.672 142.507,636.567C148.411,641.9 151.096,648.896 150.49,657.367C149.966,664.685 147.884,668.869 141.83,674.77C135.97,680.482 124.714,682.587 116.2,679.564ZM550.454,581.048C530.537,576.439 523.722,552.474 538.043,537.403C544.387,530.727 557.14,528.346 565.737,532.233C585.971,541.382 587.013,569.267 567.467,578.497C561.291,581.413 555.674,582.256 550.454,581.048ZM545.237,512.822C535.495,508.103 530.612,500.4 530.55,489.652C530.465,474.994 541.303,464.126 555.954,464.177C563.531,464.203 568.983,466.448 573.987,471.601C579.53,477.308 581.243,481.597 581.198,489.655C581.117,504.132 571.434,514.127 556.737,514.901C551.442,515.18 549.31,514.795 545.237,512.822ZM546.791,447.488C540.438,445.158 533.483,437.86 531.699,431.652C526.606,413.929 538.036,397.819 555.737,397.771C564.207,397.748 570.645,400.853 575.909,407.501C580.51,413.311 581.251,415.648 581.191,424.155C581.121,433.948 575.934,442.056 566.782,446.675C561.946,449.115 552.297,449.508 546.791,447.488ZM550.471,382.067C540.478,379.713 534.057,373.502 531.1,363.332C527.439,350.738 534.812,337.215 547.847,332.616C559.258,328.59 573.165,334.38 579,345.587C582.044,351.431 582.046,363.067 579.004,368.798C576.023,374.416 569.369,379.89 563.349,381.678C557.839,383.314 555.999,383.369 550.471,382.067L550.471,382.067ZM347.242,314.552C341.765,312.548 335.142,305.793 333.272,300.303C331.519,295.158 331.289,287.308 332.739,282.09C334.185,276.884 339.996,270.664 346.293,267.584C351.115,265.224 352.652,264.952 358.693,265.384C367.743,266.031 373.516,269.347 378.399,276.701C381.417,281.246 382.082,283.24 382.492,288.971C383.043,296.679 381.276,302.025 376.186,308.048C370.075,315.279 357.159,318.181 347.242,314.552ZM411.619,313.362C398.936,306.737 394.016,291.506 400.53,279.037C405.57,269.39 414.792,264.444 425.883,265.44L431.528,265.946L431.022,260.301C430.021,249.153 434.959,240.006 444.755,234.862C449.577,232.331 451.083,232.026 457.262,232.328L464.287,232.671L464.26,225.163C464.241,219.111 464.716,216.714 466.715,212.801C471.505,203.422 479.788,198.804 490.887,199.326L497.892,199.655L497.248,195.378C494.838,179.357 507.193,165.608 523.771,165.863L530.505,165.967L530.467,158.811C530.407,147.581 534.869,140.134 544.736,134.998C554.11,130.118 567.539,132.717 574.642,140.786C584.24,151.69 583.919,165.809 573.838,176.221C568.3,181.942 560.422,184.752 552.54,183.818L547.678,183.243L548.309,187.999C548.656,190.615 548.511,194.308 547.987,196.206L547.034,199.656L554.771,199.305C564.003,198.886 567.749,200.326 574.2,206.778C583.913,216.491 584.045,232.182 574.498,242.32C568.171,249.04 555.689,251.937 547.137,248.671C535.562,244.25 528.068,231.532 530.544,220.511L531.443,216.512L523.257,216.583L515.071,216.655L515.056,223.655C515.026,239.913 503.186,251.191 487.482,249.925L481.234,249.421L481.579,256C482.024,264.503 480.66,268.822 475.775,274.371C470.166,280.744 463.305,283.536 454.76,282.925L448.21,282.456L448.571,289.606C449.01,298.297 446.655,304.187 440.527,309.723C435.112,314.615 431.007,316.155 423.38,316.155C418.298,316.155 415.85,315.574 411.616,313.362L411.619,313.362ZM546.918,315.018C545.092,314.492 541.197,311.72 538.262,308.858C532.851,303.582 529.737,296.749 529.737,290.152C529.737,285.628 532.693,278.566 536.399,274.237C540.938,268.934 546.592,266.069 553.811,265.415C564.196,264.473 573.261,269.19 578.08,278.044C587.634,295.597 575.737,316.355 556.291,316.065C552.961,316.015 548.743,315.544 546.918,315.018ZM281.737,248.908C279.812,248.268 275.904,245.421 273.053,242.581C266.636,236.19 263.966,228.714 265.439,221.266L266.356,216.629L258.296,216.632C249.177,216.635 244.554,214.795 239.099,208.993C234.122,203.699 232.389,199.401 232.309,192.155C232.197,182 236.221,174.296 244.021,169.734C257.09,162.09 271.581,165.428 279.582,177.924C283.016,183.287 284.442,190.944 282.988,196.205L282.034,199.655L290.548,199.468L299.061,199.28L298.833,192.261C298.547,183.445 300.692,178.247 307.005,172.456C326.256,154.796 356.119,174.122 348.561,199.349C347.068,204.332 340.711,211.595 335.365,214.424C332.198,216.1 329.491,216.614 323.737,216.632L316.237,216.655L316.214,224.155C316.196,229.868 315.679,232.621 314.044,235.708C311.364,240.768 306.541,245.546 301.88,247.757C297.48,249.845 286.452,250.475 281.737,248.908L281.737,248.908ZM149.035,182.112C143.135,179.774 137.87,174.979 135.114,169.431C133.743,166.674 133.237,163.469 133.237,157.554L133.237,149.454L129.831,150.394C122.325,152.468 112.619,149.088 106.441,142.25C101.599,136.89 99.737,132.142 99.737,125.155C99.737,115.16 104.301,107.376 112.983,102.566C117.483,100.073 119.32,99.655 125.783,99.655L133.328,99.655L132.92,94.003C132.146,83.31 138.011,73.12 147.568,68.552C156.797,64.141 168.913,66.279 176.247,73.612C181.849,79.214 184.012,85.094 183.578,93.54L183.237,100.162L187.909,99.54C210.8,96.493 225.5,122.867 211.293,141.493C206.264,148.087 194.128,152.461 186.619,150.388L183.188,149.441L183.578,156.35C184.053,164.754 182.169,170.374 177.141,175.551C169.508,183.41 158.686,185.937 149.035,182.112L149.035,182.112ZM161.687,132.553L166.237,133.156L166.264,116.655L150.237,116.655L150.237,133.857L153.687,132.903C155.585,132.379 159.185,132.222 161.687,132.553L161.687,132.553ZM417.237,183.22C405.133,180.273 396.945,168.614 397.974,155.791L398.484,149.432L394.721,150.387C386.599,152.449 375.275,147.777 369.478,139.973C360.215,127.503 364.741,109.501 379.048,101.911C382.315,100.178 384.897,99.691 390.785,99.697L398.332,99.705L397.919,93.993C397.158,83.469 401.861,74.582 410.755,69.741C424.014,62.525 439.324,67.044 446.056,80.161C448.528,84.978 448.834,86.543 448.539,92.865L448.202,100.075L453.956,99.474C473.944,97.385 488.239,118.344 479.294,136.626C474.652,146.115 463.384,152.122 452.933,150.679L448.237,150.031L448.516,157.843C448.772,164.982 448.535,166.102 445.778,170.848C439.922,180.928 428.378,185.932 417.237,183.219L417.237,183.22ZM427.564,132.763L431.237,133.744L431.237,116.655L415.237,116.655L415.237,133.764L419.564,132.773C422.401,132.124 425.155,132.12 427.564,132.763L427.564,132.763ZM20.237,117.257C4.506,113.232 -4.496,94.822 2.585,81.155C8.028,70.649 14.553,66.675 26.349,66.679L34.462,66.682L33.643,63.826C32.901,61.241 33.038,58.843 34.288,52.539C34.69,50.514 34.416,50.445 27.838,50.916C21.998,51.333 20.163,51.037 15.602,48.938C8.62,45.724 4.239,41.104 1.644,34.216C-2.803,22.419 2.703,8.377 14.093,2.464C18.672,0.087 30.335,-0.458 34.992,1.488C41.068,4.027 45.7,8.16 48.539,13.577C50.733,17.766 51.198,19.968 51.194,26.155L51.189,33.655L67.329,33.655L66.911,27.877C66.064,16.189 71.672,6.58 81.909,2.176C89.573,-1.121 99.624,-0.395 105.877,3.907C119.062,12.979 121.55,29.443 111.661,42.181C107.267,47.841 100.642,50.655 91.712,50.655L84.187,50.655L84.202,58.155C84.219,66.953 82.342,71.599 76.466,77.301C71.182,82.43 65.535,84.418 57.451,83.995L50.928,83.655L51.442,88.655C52.53,99.225 46.889,109.796 37.737,114.341C31.732,117.324 24.928,118.457 20.237,117.257L20.237,117.257ZM285.454,117.074C272.863,114.073 265.318,104.142 265.382,90.655L265.415,83.655L258.509,83.99C252.629,84.275 250.787,83.925 246.103,81.633C236.49,76.93 230.559,65.508 232.164,54.786L232.782,50.655L224.51,50.631C215.28,50.605 211.499,49.17 206.512,43.801C201.22,38.104 199.319,33.337 199.276,25.655C199.231,17.597 200.944,13.308 206.487,7.601C219.26,-5.551 242.262,-0.634 248.744,16.634C249.84,19.554 250.315,31.409 249.396,32.899C249.14,33.315 252.874,33.656 257.695,33.657L266.46,33.659L265.474,30.829C262.158,21.318 270.672,5.636 281.37,1.551C287.696,-0.865 298.147,0.033 304.065,3.501C312.647,8.53 317.682,18.971 316.354,28.983L315.735,33.655L332.329,33.655L331.911,27.877C331.322,19.736 333.234,13.931 338.394,8.192C353.633,-8.758 382.762,2.401 382.671,25.155C382.632,35.078 378.126,43.077 369.831,47.954C365.857,50.29 364.139,50.655 357.106,50.655L348.975,50.655L349.482,56.266C350.205,64.252 347.643,71.349 342.089,76.747C336.208,82.462 330.604,84.507 322.273,83.976L315.722,83.559L316.348,88.279C317.203,94.728 315.206,102.253 311.271,107.406C305.452,115.027 294.334,119.19 285.455,117.074L285.454,117.074ZM298.693,62.364C298.329,59.969 298.334,56.355 298.703,54.332L299.375,50.655L281.976,50.655L282.943,53.155C283.475,54.53 283.638,58.13 283.305,61.155L282.7,66.655L299.354,66.718L298.693,62.364L298.693,62.364ZM552.712,117.097C543.476,116.043 537.06,111.557 533.042,103.346C530.786,98.734 530.317,96.485 530.407,90.696L530.516,83.655L524.613,83.994C508.546,84.919 497.186,73.953 497.276,57.606L497.315,50.558L491.765,50.959C483.86,51.531 478.318,49.732 473.062,44.887C466.439,38.782 464.298,34.087 464.289,25.655C464.281,17.583 466.014,13.235 471.487,7.601C476.491,2.448 481.943,0.203 489.52,0.177C504.817,0.123 517.024,13.668 515.185,28.655L514.572,33.655L523.035,33.655C531.469,33.655 531.495,33.647 530.618,31.34C527.186,22.317 534.965,6.682 545.198,2.033C551.404,-0.785 561.065,-0.482 567.519,2.734C583.035,10.466 586.372,31.362 574.056,43.678C568.373,49.361 562.64,51.509 554.53,50.993L548.237,50.592L548.237,66.655L555.737,66.678C561.428,66.696 564.205,67.214 567.25,68.827C582.005,76.645 586.13,94.773 576.136,107.876C570.643,115.078 562.639,118.229 552.712,117.097L552.712,117.097ZM147.177,48.843C138.517,44.702 132.702,35.45 132.781,25.937C132.904,11.152 143.773,0.157 158.237,0.187C180.505,0.232 191.834,25.69 177.266,42.949C173.1,47.884 167.353,50.408 159.237,50.866C153.375,51.198 151.415,50.868 147.177,48.843ZM413.237,49.288C397.661,42.187 392.794,23.413 403.045,9.973C412.331,-2.202 431.974,-3.312 441.719,7.787C451.1,18.472 451.281,32.268 442.182,43.048C435.921,50.466 422.276,53.408 413.237,49.288Z" style="fill:rgb(238,230,218);fill-rule:nonzero;"/>
                </g>
                <g transform="matrix(0.939344,-0.618019,1.64067,2.4937,-1254.13,4483.01)">
                    <g transform="matrix(8.4076,0,0,0.883352,-66217.5,282.283)">
                        <rect x="8890.92" y="297.867" width="324.944" height="258.625" style="fill:rgb(238,230,218);"/>
                    </g>
                    <g transform="matrix(8.09427,0,0,0.805453,-67441,598.404)">
                        <rect x="9385.95" y="217.838" width="338.117" height="250.002" style="fill:rgb(226,60,40);"/>
                    </g>
                </g>
            </g>
        </g>
    </g>
</svg>
