<?xml version="1.0" encoding="UTF-8" standalone="no"?>
<!DOCTYPE svg PUBLIC "-//W3C//DTD SVG 1.1//EN" "http://www.w3.org/Graphics/SVG/1.1/DTD/svg11.dtd">
<svg width="100%" height="100%" viewBox="0 0 2732 1536" version="1.1" xmlns="http://www.w3.org/2000/svg" xmlns:xlink="http://www.w3.org/1999/xlink" xml:space="preserve" xmlns:serif="http://www.serif.com/" style="fill-rule:evenodd;clip-rule:evenodd;stroke-linejoin:round;stroke-miterlimit:2;">
    <g transform="matrix(1,0,0,1,-5742.73,-3318.64)">
        <g id="C64" transform="matrix(1,0,0,0.75,-2864.54,3318.64)">
            <rect x="8607.28" y="0" width="2732" height="2048" style="fill:none;"/>
            <clipPath id="_clip1">
                <rect x="8607.28" y="0" width="2732" height="2048"/>
            </clipPath>
            <g clip-path="url(#_clip1)">
                <g transform="matrix(1.38379,0,0,3.70393,-3320.77,-590.381)">
                    <rect x="8607" y="159.393" width="1996.04" height="557.257" style="fill:rgb(82,78,188);"/>
                </g>
                <g transform="matrix(0.822864,0,0,1.09715,1097.45,1143.79)">
                    <path d="M10359.7,691.429L10311.7,691.429L10311.7,739.429L10359.7,739.429L10359.7,691.429ZM9784.68,595.429L9808.68,595.429L9808.68,619.429L9832.68,619.429L9832.68,739.429L9784.68,739.429L9784.68,667.429L9736.68,667.429L9736.68,739.429L9688.68,739.429L9688.68,619.429L9712.68,619.429L9712.68,595.429L9734.68,595.429L9734.68,571.429L9784.68,571.429L9784.68,595.429ZM10120.7,667.429L10096.7,667.429L10096.7,643.429L10192.7,643.429L10192.7,667.429L10168.7,667.429L10168.7,739.429L10120.7,739.429L10120.7,667.429ZM9498.68,571.429L9642.68,571.429L9642.68,595.429L9546.68,595.429L9546.68,643.429L9593.68,643.429L9593.68,667.429L9546.68,667.429L9546.68,715.429L9642.68,715.429L9642.68,739.429L9498.68,739.429L9498.68,571.429ZM9306.68,571.429L9352.68,571.429L9352.68,643.429L9402.68,643.429L9402.68,595.429L9352.68,595.429L9352.68,571.429L9426.68,571.429L9426.68,595.429L9450.68,595.429L9450.68,643.429L9426.68,643.429L9426.68,667.429L9352.68,667.429L9402.68,667.429L9402.68,691.429L9426.68,691.429L9426.68,715.429L9377.68,715.429L9377.68,691.429L9352.68,691.429L9352.68,739.429L9306.68,739.429L9306.68,571.429ZM9450.68,715.429L9401.68,715.429L9401.68,739.429L9450.68,739.429L9450.68,715.429ZM9880.68,571.429L9976.68,571.429L9976.68,595.429L9928.68,595.429L9928.68,715.429L9952.68,715.429L9952.68,691.429L10000.7,691.429L10000.7,715.429L9976.68,715.429L9976.68,739.429L9880.68,739.429L9880.68,571.429ZM9952.68,619.429L9952.68,595.429L10000.7,595.429L10000.7,619.429L10024.7,619.429L10024.7,691.429L9976.68,691.429L9976.68,619.429L9952.68,619.429ZM10120.7,571.429L10072.7,571.429L10072.7,643.429L10120.7,643.429L10120.7,571.429ZM9736.68,619.429L9736.68,643.429L9784.68,643.429L9784.68,619.429L9736.68,619.429ZM10216.7,571.429L10168.7,571.429L10168.7,643.429L10216.7,643.429L10216.7,571.429Z" style="fill:rgb(157,177,251);"/>
                </g>
                <g transform="matrix(1.43903,0,0,0.896696,-4023.03,-453.639)">
                    <g transform="matrix(1.30156,-1.70792e-19,-1.55709e-19,1.54566,-2601.88,-1053.94)">
                        <path d="M10213.8,1527.05C10213.8,1508.36 10205.4,1493.18 10195,1493.18L8722.47,1493.18C8712.09,1493.18 8703.67,1508.36 8703.67,1527.05C8703.67,1545.74 8712.09,1560.92 8722.47,1560.92L10195,1560.92C10205.4,1560.92 10213.8,1545.74 10213.8,1527.05Z" style="fill:rgb(197,60,62);"/>
                    </g>
                    <g transform="matrix(1.30156,-1.70792e-19,-1.55709e-19,1.54566,-2601.88,-909.068)">
                        <path d="M10213.8,1527.05C10213.8,1508.36 10205.4,1493.18 10195,1493.18L8722.47,1493.18C8712.09,1493.18 8703.67,1508.36 8703.67,1527.05C8703.67,1545.74 8712.09,1560.92 8722.47,1560.92L10195,1560.92C10205.4,1560.92 10213.8,1545.74 10213.8,1527.05Z" style="fill:rgb(232,158,79);"/>
                    </g>
                    <g transform="matrix(1.30156,-1.70792e-19,-1.55709e-19,1.54566,-2601.88,-764.196)">
                        <path d="M10213.8,1527.05C10213.8,1508.36 10205.4,1493.18 10195,1493.18L8722.47,1493.18C8712.09,1493.18 8703.67,1508.36 8703.67,1527.05C8703.67,1545.74 8712.09,1560.92 8722.47,1560.92L10195,1560.92C10205.4,1560.92 10213.8,1545.74 10213.8,1527.05Z" style="fill:rgb(242,228,69);"/>
                    </g>
                    <g transform="matrix(1.30156,-1.70792e-19,-1.55709e-19,1.54566,-2601.88,-619.324)">
                        <path d="M10213.8,1527.05C10213.8,1508.36 10205.4,1493.18 10195,1493.18L8722.47,1493.18C8712.09,1493.18 8703.67,1508.36 8703.67,1527.05C8703.67,1545.74 8712.09,1560.92 8722.47,1560.92L10195,1560.92C10205.4,1560.92 10213.8,1545.74 10213.8,1527.05Z" style="fill:rgb(103,182,70);"/>
                    </g>
                    <g transform="matrix(1.30156,-1.70792e-19,-1.55709e-19,1.54566,-2601.88,-474.452)">
                        <path d="M10213.8,1527.05C10213.8,1508.36 10205.4,1493.18 10195,1493.18L8722.47,1493.18C8712.09,1493.18 8703.67,1508.36 8703.67,1527.05C8703.67,1545.74 8712.09,1560.92 8722.47,1560.92L10195,1560.92C10205.4,1560.92 10213.8,1545.74 10213.8,1527.05Z" style="fill:rgb(21,151,199);"/>
                    </g>
                </g>
            </g>
        </g>
    </g>
</svg>
