<?xml version="1.0" encoding="UTF-8" standalone="no"?>
<!DOCTYPE svg PUBLIC "-//W3C//DTD SVG 1.1//EN" "http://www.w3.org/Graphics/SVG/1.1/DTD/svg11.dtd">
<svg width="100%" height="100%" viewBox="0 0 2732 1536" version="1.1" xmlns="http://www.w3.org/2000/svg" xmlns:xlink="http://www.w3.org/1999/xlink" xml:space="preserve" xmlns:serif="http://www.serif.com/" style="fill-rule:evenodd;clip-rule:evenodd;stroke-linecap:square;stroke-miterlimit:1.5;">
    <g transform="matrix(1,0,0,1,-5749.39,-1671.13)">
        <g id="Nintendo" transform="matrix(1,0,0,0.75,85.389,1671.13)">
            <rect x="5664" y="0" width="2732" height="2048" style="fill:none;"/>
            <clipPath id="_clip1">
                <rect x="5664" y="0" width="2732" height="2048"/>
            </clipPath>
            <g clip-path="url(#_clip1)">
                <g transform="matrix(1,0,0,1.33333,1869.32,-15047.9)">
                    <g transform="matrix(0.937112,0,0,0.948027,238.642,578.656)">
                        <rect x="3794.68" y="11242.7" width="2920.48" height="936.572" style="fill:rgb(224,1,1);"/>
                        <path d="M6716.48,11242.7C6716.48,11242 6715.89,11241.4 6715.16,11241.4L3794.68,11241.4C3793.95,11241.4 3793.36,11242 3793.36,11242.7L3793.36,12179.3C3793.36,12180 3793.95,12180.6 3794.68,12180.6L6715.16,12180.6C6715.89,12180.6 6716.48,12180 6716.48,12179.3C6716.48,12179.3 6716.48,11242.7 6716.48,11242.7ZM6715.16,11242.7L3794.68,11242.7L3794.68,12179.3L6715.16,12179.3L6715.16,11242.7Z" style="fill:rgb(141,231,18);"/>
                    </g>
                    <g transform="matrix(1.15391,0,0,0.841501,1034.76,2069.5)">
                        <path d="M6402.85,11949.4C6402.85,11713.6 6263.24,11522.2 6091.29,11522.2L4478.78,11522.2C4306.82,11522.2 4167.21,11713.6 4167.21,11949.4C4167.21,12185.2 4306.82,12376.7 4478.78,12376.7L6091.29,12376.7C6263.24,12376.7 6402.85,12185.2 6402.85,11949.4Z" style="fill:none;"/>
                        <clipPath id="_clip2">
                            <path d="M6402.85,11949.4C6402.85,11713.6 6263.24,11522.2 6091.29,11522.2L4478.78,11522.2C4306.82,11522.2 4167.21,11713.6 4167.21,11949.4C4167.21,12185.2 4306.82,12376.7 4478.78,12376.7L6091.29,12376.7C6263.24,12376.7 6402.85,12185.2 6402.85,11949.4Z"/>
                        </clipPath>
                        <g clip-path="url(#_clip2)">
                            <g transform="matrix(1.58603,0,0,1.32372,-5062.86,-4127.53)">
                                <path d="M6667.45,12145.3C6667.45,11967.1 6579.43,11822.5 6471.01,11822.5L6027.82,11822.5C5919.4,11822.5 5831.38,11967.1 5831.38,12145.3C5831.38,12323.4 5919.4,12468 6027.82,12468L6471.01,12468C6579.43,12468 6667.45,12323.4 6667.45,12145.3Z" style="fill:white;"/>
                            </g>
                            <g transform="matrix(2.59637,0,0,3.56029,-8514.04,-30733)">
                                <path d="M5091.89,11923.4L5052.07,11923.4L5052.28,12013.1L4995.39,11923.4L4954.95,11923.4L4954.95,12053.5L4995.39,12053.5L4995.39,11964L5052.53,12053.5L5091.89,12053.5L5091.89,11923.4Z" style="fill:rgb(224,1,1);"/>
                            </g>
                        </g>
                        <path d="M6402.85,11949.4C6402.85,11713.6 6263.24,11522.2 6091.29,11522.2L4478.78,11522.2C4306.82,11522.2 4167.21,11713.6 4167.21,11949.4C4167.21,12185.2 4306.82,12376.7 4478.78,12376.7L6091.29,12376.7C6263.24,12376.7 6402.85,12185.2 6402.85,11949.4Z" style="fill:none;stroke:rgb(224,1,1);stroke-width:113.44px;"/>
                    </g>
                </g>
            </g>
        </g>
    </g>
</svg>
