<?xml version="1.0" encoding="UTF-8" standalone="no"?>
<!DOCTYPE svg PUBLIC "-//W3C//DTD SVG 1.1//EN" "http://www.w3.org/Graphics/SVG/1.1/DTD/svg11.dtd">
<svg width="100%" height="100%" viewBox="0 0 2732 1536" version="1.1" xmlns="http://www.w3.org/2000/svg" xmlns:xlink="http://www.w3.org/1999/xlink" xml:space="preserve" xmlns:serif="http://www.serif.com/" style="fill-rule:evenodd;clip-rule:evenodd;stroke-linecap:square;stroke-miterlimit:2;">
    <g transform="matrix(1,0,0,1,-2887.46,-1669.38)">
        <g id="Sega" transform="matrix(1,0,0,0.75,-2776.54,1669.38)">
            <rect x="5664" y="0" width="2732" height="2048" style="fill:none;"/>
            <clipPath id="_clip1">
                <rect x="5664" y="0" width="2732" height="2048"/>
            </clipPath>
            <g clip-path="url(#_clip1)">
                <g transform="matrix(1.00297,0,0,1.33333,1828.74,-12703.8)">
                    <rect x="3821.86" y="9527.85" width="2729.93" height="1536" style="fill:rgb(24,83,129);"/>
                </g>
                <g transform="matrix(1.20398,0,0,1.20398,318.125,-172.434)">
                    <g transform="matrix(1.7894,0,0,1.75903,-2838.9,-16787.5)">
                        <path d="M6404.04,9686.77L5074.46,9686.77C5021.19,9686.77 4970.11,9715.47 4932.44,9766.56C4894.78,9817.64 4873.62,9886.93 4873.62,9959.18L4873.62,9959.18C4873.62,10109.6 4963.54,10231.6 5074.46,10231.6C5099.09,10231.6 5125.3,10231.6 5149.91,10231.6C5156.57,10231.6 5161.97,10238.9 5161.97,10247.9C5161.97,10247.9 5161.97,10247.9 5161.97,10247.9C5161.97,10252.2 5160.71,10256.3 5158.47,10259.4C5156.23,10262.4 5153.19,10264.1 5150.03,10264.1L3656.32,10264.1L3656.32,10519.6L5150.03,10519.6C5203.15,10519.6 5254.09,10491 5291.65,10440C5329.21,10389.1 5350.31,10320 5350.31,10247.9C5350.31,10247.9 5350.31,10247.9 5350.31,10247.9C5350.3,10097.8 5260.59,9976.12 5149.91,9976.12C5125.3,9976.12 5099.09,9976.12 5074.46,9976.12C5067.56,9976.12 5061.97,9968.53 5061.97,9959.18L5061.97,9959.18C5061.97,9954.68 5063.28,9950.37 5065.62,9947.2C5067.97,9944.02 5071.14,9942.23 5074.46,9942.23L6404.04,9942.23L6404.04,9686.77Z" style="fill:none;stroke:white;stroke-width:122px;"/>
                    </g>
                    <g transform="matrix(1.7894,0,0,1.75903,-2838.9,-16787.5)">
                        <path d="M6566.34,9686.77L5074.46,9686.77C4963.54,9686.77 4873.62,9808.73 4873.62,9959.18L4873.62,9959.18C4873.62,10109.6 4963.54,10231.6 5074.45,10231.6L5149.97,10231.6C5156.59,10231.6 5161.97,10238.9 5161.97,10247.9C5161.97,10247.9 5161.97,10247.9 5161.97,10247.9C5161.97,10252.2 5160.7,10256.3 5158.45,10259.4C5156.21,10262.4 5153.15,10264.1 5149.98,10264.1L3656.32,10264.1L3656.32,10519.6L5149.98,10519.6C5203.11,10519.6 5254.07,10490.9 5291.64,10440C5329.21,10389 5350.31,10319.9 5350.31,10247.8C5350.31,10247.8 5350.31,10247.8 5350.31,10247.8C5350.3,10097.8 5260.61,9976.12 5149.97,9976.12L5074.45,9976.12C5067.56,9976.12 5061.97,9968.53 5061.97,9959.18L5061.97,9959.18C5061.97,9949.82 5067.56,9942.23 5074.46,9942.23L6566.34,9942.23L6566.34,9686.77Z" style="fill:rgb(0,137,207);"/>
                    </g>
                    <g transform="matrix(1.7894,0,0,1.75903,-2838.9,-16787.5)">
                        <path d="M6472.17,9800.54L5074.46,9800.54C5009.86,9800.54 4957.5,9871.56 4957.5,9959.18L4957.5,9959.18C4957.5,10046.8 5009.86,10117.8 5074.45,10117.8L5149.97,10117.8C5202.91,10117.8 5245.84,10176 5245.84,10247.8C5245.84,10247.8 5245.84,10247.8 5245.84,10247.8C5245.84,10282.3 5235.74,10315.4 5217.76,10339.8C5199.78,10364.2 5175.4,10377.9 5149.98,10377.9L3750.49,10377.9C3744.81,10377.9 3740.19,10384.1 3740.19,10391.8C3740.19,10399.6 3744.81,10405.8 3750.49,10405.8L5149.98,10405.8C5180.86,10405.8 5210.49,10389.2 5232.33,10359.5C5254.17,10329.9 5266.44,10289.7 5266.44,10247.8C5266.44,10247.8 5266.44,10247.8 5266.44,10247.8C5266.43,10160.6 5214.29,10089.9 5149.97,10089.9L5074.45,10089.9C5021.23,10089.9 4978.09,10031.4 4978.09,9959.18L4978.09,9959.18C4978.09,9886.99 5021.24,9828.47 5074.46,9828.47L6472.17,9828.47C6477.85,9828.47 6482.46,9822.21 6482.46,9814.5C6482.46,9806.8 6477.85,9800.54 6472.17,9800.54Z" style="fill:rgb(235,242,255);"/>
                    </g>
                </g>
            </g>
        </g>
    </g>
</svg>
