<?xml version="1.0" encoding="UTF-8" standalone="no"?>
<!DOCTYPE svg PUBLIC "-//W3C//DTD SVG 1.1//EN" "http://www.w3.org/Graphics/SVG/1.1/DTD/svg11.dtd">
<svg width="100%" height="100%" viewBox="0 0 2732 1536" version="1.1" xmlns="http://www.w3.org/2000/svg" xmlns:xlink="http://www.w3.org/1999/xlink" xml:space="preserve" xmlns:serif="http://www.serif.com/" style="fill-rule:evenodd;clip-rule:evenodd;stroke-linejoin:round;stroke-miterlimit:2;">
    <g transform="matrix(1,0,0,1,-32.182,0)">
        <g id="Spectrum-1982" serif:id="Spectrum 1982" transform="matrix(1,0,0,0.75,-5631.82,0)">
            <rect x="5664" y="0" width="2732" height="2048" style="fill:none;"/>
            <clipPath id="_clip1">
                <rect x="5664" y="0" width="2732" height="2048"/>
            </clipPath>
            <g clip-path="url(#_clip1)">
                <g transform="matrix(1.60312,0,0,2.55891,-3516.9,-1144.9)">
                    <rect x="5709.37" y="443.778" width="1722.95" height="810.674" style="fill:rgb(19,19,19);"/>
                    <path d="M7433.78,443.778C7433.78,443.108 7433.13,442.565 7432.32,442.565L5709.37,442.565C5708.57,442.565 5707.92,443.108 5707.92,443.778L5707.92,1254.45C5707.92,1255.12 5708.57,1255.66 5709.37,1255.66L7432.32,1255.66C7433.13,1255.66 7433.78,1255.12 7433.78,1254.45L7433.78,443.778ZM7432.32,443.778L5709.37,443.778L5709.37,1254.45L7432.32,1254.45L7432.32,443.778Z" style="fill:rgb(141,231,18);"/>
                </g>
                <g transform="matrix(1,0,0,1,424.553,507.244)">
                    <g>
                        <g transform="matrix(7.04245,4.07175,-36.4656,112.125,12024.9,-19515.3)">
                            <rect x="144" y="150" width="48" height="42" style="fill:rgb(255,0,0);"/>
                        </g>
                        <g transform="matrix(7.04245,4.07175,-38.2293,117.549,12965.5,-19937.9)">
                            <rect x="144" y="150" width="48" height="42" style="fill:rgb(0,255,0);"/>
                        </g>
                        <g transform="matrix(7.04245,4.07175,-36.4656,112.125,12362.9,-19319.9)">
                            <rect x="144" y="150" width="48" height="42" style="fill:rgb(255,255,0);"/>
                        </g>
                        <g transform="matrix(7.04245,4.07175,-36.4656,112.125,13039,-18929)">
                            <rect x="144" y="150" width="48" height="42" style="fill:rgb(0,255,255);"/>
                        </g>
                    </g>
                </g>
                <g transform="matrix(0.42651,0,0,0.42651,3226.36,1463.23)">
                    <g transform="matrix(1,0,0,1.33333,5961.03,-67.0001)">
                        <path d="M1824,864L1632,864L1632,912L1824,912L1824,864ZM1632,768L1584,768L1584,864L1632,864L1632,768ZM1824,768L1872,768L1872,864L1824,864L1824,768L1632,768L1632,720L1824,720L1824,768ZM1872,672L1824,672L1824,720L1872,720L1872,672ZM1632,720L1584,720L1584,672L1632,672L1632,624L1824,624L1824,672L1632,672L1632,720Z" style="fill:white;"/>
                        <path d="M912,720L864,720L864,672L912,672L912,624L1008,624L1008,864L1104,864L1104,912L864,912L864,864L960,864L960,672L912,672L912,720Z" style="fill:white;"/>
                        <path d="M1440,912L1248,912L1248,864L1440,864L1440,816L1248,816L1248,768L1200,768L1200,672L1248,672L1248,624L1440,624L1440,672L1488,672L1488,864L1440,864L1440,912ZM1440,672L1248,672L1248,768L1440,768L1440,672Z" style="fill:white;"/>
                        <path d="M2016,864L2256,864L2256,912L1968,912L1968,816L2016,816L2016,864ZM2208,672L2256,672L2256,768L2208,768L2208,816L2018.22,816L2018.22,768L2208,768L2208,672ZM2016,672L1968,672L1968,720L2016,720L2016,672ZM2205.78,624L2016,624L2016,672L2205.78,672L2205.78,624Z" style="fill:white;"/>
                    </g>
                    <g transform="matrix(1,0,0,1.33333,5913.03,-67.0001)">
                        <path d="M144,912L144,864L192,864L192,912L384,912L384,864L432,864L432,912L384,912L384,960L192,960L192,912L144,912ZM342,816L240,816L240,864L342,864L342,816ZM144,672L96,672L96,864L144,864L144,672ZM384,672L384,624L432,624L432,672L480,672L480,864L432,864L432,672L384,672ZM240,720L240,672L336,672L336,720L240,720L240,816L189,816L189,720L240,720ZM192,624L192,576L384,576L384,624L192,624L192,672L144,672L144,624L192,624Z" style="fill:white;"/>
                    </g>
                </g>
            </g>
        </g>
    </g>
</svg>
