<?xml version="1.0" encoding="UTF-8" standalone="no"?>
<!DOCTYPE svg PUBLIC "-//W3C//DTD SVG 1.1//EN" "http://www.w3.org/Graphics/SVG/1.1/DTD/svg11.dtd">
<svg width="100%" height="100%" viewBox="0 0 2732 1536" version="1.1" xmlns="http://www.w3.org/2000/svg" xmlns:xlink="http://www.w3.org/1999/xlink" xml:space="preserve" xmlns:serif="http://www.serif.com/" style="fill-rule:evenodd;clip-rule:evenodd;stroke-linejoin:round;stroke-miterlimit:2;">
    <g transform="matrix(1,0,0,1,-2887.46,0)">
        <g id="Spectrum-Run" serif:id="Spectrum Run" transform="matrix(1,0,0,0.75,-2776.54,0)">
            <rect x="5664" y="0" width="2732" height="2048" style="fill:none;"/>
            <clipPath id="_clip1">
                <rect x="5664" y="0" width="2732" height="2048"/>
            </clipPath>
            <g clip-path="url(#_clip1)">
                <g transform="matrix(1.17342,0,0,1.66559,-1135.96,-157.325)">
                    <rect x="5795" y="94.456" width="2328.24" height="1639.46" style="fill:rgb(19,19,19);"/>
                </g>
                <g transform="matrix(1,0,0,1,70.304,-6.48216)">
                    <g transform="matrix(7.04245,4.07175,-36.4656,112.125,12024.9,-19515.3)">
                        <rect x="144" y="150" width="48" height="42" style="fill:rgb(255,0,0);"/>
                    </g>
                    <g transform="matrix(7.04245,4.07175,-38.2293,117.549,12965.5,-19937.9)">
                        <rect x="144" y="150" width="48" height="42" style="fill:rgb(0,255,0);"/>
                    </g>
                    <g transform="matrix(7.04245,4.07175,-36.4656,112.125,12362.9,-19319.9)">
                        <rect x="144" y="150" width="48" height="42" style="fill:rgb(255,255,0);"/>
                    </g>
                    <g transform="matrix(7.04245,4.07175,-36.4656,112.125,13039,-18929)">
                        <rect x="144" y="150" width="48" height="42" style="fill:rgb(0,255,255);"/>
                    </g>
                </g>
                <g transform="matrix(1,0,0,1,71,0)">
                    <g transform="matrix(0.400166,0,0,0.533555,4581.57,1658.51)">
                        <g transform="matrix(8,0,0,8.85714,3334.28,-1130.57)">
                            <rect x="144" y="150" width="48" height="42"/>
                        </g>
                        <g transform="matrix(1,0,0,1,2902.28,96)">
                            <path d="M1920,432L1632,432L1632,144L1680,144L1680,384L1920,384L1920,432Z" style="fill:rgb(242,239,223);"/>
                        </g>
                    </g>
                    <g transform="matrix(0.400166,0,0,0.533555,3410.47,929.495)">
                        <path d="M6932.82,1798.34L6932.82,1606.34L6980.82,1606.34L6980.82,1894.34L6932.82,1894.34L6932.82,1846.34L6884.82,1846.34L6884.82,1798.34L6932.82,1798.34ZM6740.82,1654.34L6788.82,1654.34L6788.82,1702.34L6740.82,1702.34L6740.82,1894.34L6692.82,1894.34L6692.82,1606.34L6740.82,1606.34L6740.82,1654.34ZM6548.82,1846.34L6548.82,1606.34L6596.82,1606.34L6596.82,1846.34L6548.82,1846.34L6548.82,1894.34L6359.04,1894.34L6359.04,1846.34L6548.82,1846.34ZM6212.82,1846.34L6164.82,1846.34L6164.82,1894.34L6212.82,1894.34L6212.82,1846.34ZM6164.82,1846.34L6116.82,1846.34L6116.82,1798.34L5972.82,1798.34L5972.82,1894.34L5924.82,1894.34L5924.82,1606.34L6164.82,1606.34L6164.82,1654.34L5972.82,1654.34L5972.82,1750.34L6164.82,1750.34L6164.82,1846.34ZM6359.04,1606.34L6311.04,1606.34L6311.04,1846.34L6359.04,1846.34L6359.04,1606.34ZM6884.82,1750.34L6836.82,1750.34L6836.82,1798.34L6884.82,1798.34L6884.82,1750.34ZM6836.82,1702.34L6788.82,1702.34L6788.82,1750.34L6836.82,1750.34L6836.82,1702.34ZM6212.82,1654.34L6164.82,1654.34L6164.82,1750.34L6212.82,1750.34L6212.82,1654.34Z" style="fill:white;"/>
                    </g>
                </g>
            </g>
        </g>
    </g>
</svg>
